<svg width="108" height="121" viewBox="0 0 108 121" fill="none" xmlns="http://www.w3.org/2000/svg">
<path d="M84.0591 31.5929H78.0931H71.9741H65.9316V37.8792H71.9741H78.0931H84.0591H90.0251H96.0676V31.5929H90.0251H84.0591Z" fill="#BA6156"/>
<path d="M71.9741 94.7782H78.0931H84.0591H90.0251H96.0676V88.3307H90.0251H84.0591H78.0931H71.9741H65.9316V94.7782H71.9741Z" fill="#BA6156"/>
<path d="M71.9741 75.7579H78.0931H84.0591H90.0251H96.0676V69.4716H90.0251H84.0591H78.0931H71.9741H65.9316V75.7579H71.9741Z" fill="#BA6156"/>
<path d="M71.9741 56.8991H78.0931H84.0591H90.0251H96.0676V50.6128H90.0251H84.0591H78.0931H71.9741H65.9316V56.8991H71.9741Z" fill="#BA6156"/>
<path d="M59.9664 100.984V107.351H54.0769H48.1109H42.1449H36.1789H29.9834V113.798H36.1789H42.1449H48.1109H54.0769H60.0429H66.0089H71.9749H78.0939H84.0599H90.0259H96.0684V107.351H90.0259H84.0599H78.0939H71.9749H65.9324V100.984V94.7781H59.9664V100.984Z" fill="#BA6156"/>
<path d="M59.9658 81.9636V88.3305H65.9318V81.9636V75.7579H59.9658V81.9636Z" fill="#BA6156"/>
<path d="M59.9658 63.1049V69.4718H65.9318V63.1049V56.8992H59.9658V63.1049Z" fill="#BA6156"/>
<path d="M59.9658 44.0847V50.6128H65.9318V44.0847V37.879H59.9658V44.0847Z" fill="#BA6156"/>
<path d="M90.0251 37.879H84.0591H78.0931H71.9741H65.9316V44.0847V50.6128H71.9741H78.0931H84.0591H90.0251H96.0676V56.8991H90.0251H84.0591H78.0931H71.9741H65.9316V63.1048V69.4717H71.9741H78.0931H84.0591H90.0251H96.0676V75.758H90.0251H84.0591H78.0931H71.9741H65.9316V81.9637V88.3306H71.9741H78.0931H84.0591H90.0251H96.0676V94.7781H90.0251H84.0591H78.0931H71.9741H65.9316V100.984V107.351H71.9741H78.0931H84.0591H90.0251H96.1441H102.034V100.984V94.6975V88.25V81.9637V75.6774V69.3911V63.1048V56.8185V50.5322V44.0847V37.879H96.1441H90.0251Z" fill="#F7C8A1"/>
<path d="M59.9664 88.3306V81.9637V75.7579H65.9324V69.4716H59.9664V63.1047V56.899H65.9324V50.6127H59.9664V44.0847V37.879H65.9324V31.5121V25.0646V18.7783V12.5726H59.9664V6.28625H54.0769H48.0344V12.5726H42.0684V18.7783V25.0646V31.5121V37.879H36.1024V44.1653H29.9834V50.5321V56.8184V63.1047V69.391V75.6774V81.9637V88.25V94.6974V100.984V107.351H36.1789H42.1449H48.1109H54.0769H59.9664V100.984V94.778H65.9324V88.3306H59.9664Z" fill="#F7C8A1"/>
<path d="M30.1359 107.27H24.1699V113.718H30.1359V107.27Z" fill="#C2C2D1"/>
<path d="M12.0083 107.35H5.96582V113.798H12.0083H18.1273H24.0168V107.35H18.1273H12.0083Z" fill="#4B5BAB"/>
<path d="M12.0083 44.1654H5.96582V50.5323V56.8186V63.1049V69.3912V75.6775V81.9638V88.2501V94.6976V100.984V107.351H12.0083H18.1273H24.0168V100.984V94.6976V88.2501V81.9638V75.6775V69.3912V63.1049V56.8186V50.5323V44.1654H18.1273H12.0083Z" fill="#4DA6FF"/>
<path d="M102.034 44.0847V50.5322V56.8185V63.1048V69.3911V75.6774V81.9637V88.25V94.6975V100.984V107.351H108V100.984V94.6975V88.25V81.9637V75.6774V69.3911V63.1048V56.8185V50.5322V44.0847V37.879H102.034V44.0847Z" fill="#272736"/>
<path d="M102.034 107.35H96.0684V113.798H102.034V107.35Z" fill="#272736"/>
<path d="M102.034 31.5929H96.0684V37.8792H102.034V31.5929Z" fill="#272736"/>
<path d="M84.0593 113.798H78.0933H71.9743H66.0083H60.0423H54.0763H48.1103H42.1443H36.1783H30.0593H24.0933H18.1273H12.0083H5.96582V120.085H12.0083H18.1273H24.0933H30.0593H36.1783H42.1443H48.1103H54.0763H60.0423H66.0083H71.9743H78.0933H84.0593H90.0253H96.0678V113.798H90.0253H84.0593Z" fill="#272736"/>
<path d="M65.9316 25.0646V31.5927H71.9741H78.0931H84.0591H90.0251H96.0676V25.1452H90.0251H84.0591H78.0931H71.8976V18.7783V12.5726H65.9316V18.7783V25.0646Z" fill="#272736"/>
<path d="M65.9318 6.28625H59.9658V12.5726H65.9318V6.28625Z" fill="#272736"/>
<path d="M59.9662 6.28642V0.00012207H54.0767H48.0342V6.28642H54.0767H59.9662Z" fill="#272736"/>
<path d="M48.0344 6.28625H42.0684V12.5726H48.0344V6.28625Z" fill="#272736"/>
<path d="M42.0676 31.5121V25.0646V18.7783V12.5726H36.1016V18.7783V25.0646V31.5121V37.879H42.0676V31.5121Z" fill="#272736"/>
<path d="M18.1273 44.1653H24.0933H30.0593H36.1018V37.879H30.0593H24.0933H18.1273H12.0083H5.96582V44.1653H12.0083H18.1273Z" fill="#272736"/>
<path d="M5.96601 100.984V94.6976V88.2501V81.9638V75.6775V69.3912V63.1049V56.8186V50.5323V44.1654H0V50.5323V56.8186V63.1049V69.3912V75.6775V81.9638V88.2501V94.6976V100.984V107.27V113.798H5.96601V107.27V100.984Z" fill="#272736"/>
<path d="M29.9826 100.984V94.6976V88.2501V81.9638V75.6775V69.3912V63.1049V56.8186V50.5323V44.1654H24.0166V50.5323V56.8186V63.1049V69.3912V75.6775V81.9638V88.2501V94.6976V100.984V107.351H29.9826V100.984Z" fill="#FFFFEB"/>
</svg>
