<svg width="108" height="121" viewBox="0 0 108 121" fill="none" xmlns="http://www.w3.org/2000/svg">
<path d="M78.1698 77.9408H72.0508V84.0598H78.1698V77.9408Z" fill="#C2C2D1"/>
<path d="M71.8976 78.0168H65.9316V84.1358H71.8976V78.0168Z" fill="#BA6156"/>
<path d="M65.9318 84.1362H59.9658V90.1022H65.9318V84.1362Z" fill="#BA6156"/>
<path d="M41.915 108V113.966H48.1105H54V108H48.1105H41.915Z" fill="#BA6156"/>
<path d="M41.9152 95.9918V90.0258V84.1362H35.9492V90.0258V95.9918V101.958V108H41.9152V101.958V95.9918Z" fill="#BA6156"/>
<path d="M30.0591 78.0168H24.0931H17.9741H11.9316V84.1358H17.9741H24.0931H30.0591H35.9486V78.0168H30.0591Z" fill="#BA6156"/>
<path d="M17.8976 6.11926H11.9316V12.0853H17.8976V6.11926Z" fill="#BA6156"/>
<path d="M11.9318 66.0851H17.9743H24.0933H30.0593H35.9488V59.9661H30.0593H24.0933H17.9743H11.9318V53.9236V48.0341H17.9743H24.0933H30.0593H35.9488V42.0681H30.0593H24.0933H17.9743H11.9318V36.0256V30.1361H17.9743H24.0933H30.0593H35.9488V24.1701H30.0593H24.0933H17.9743H11.9318V17.9746V12.0851H5.96582V17.9746V24.0936V30.0596V36.0256V41.9916V47.9576V53.9236V59.8896V66.0086V71.9746V78.0171H11.9318V71.9746V66.0851Z" fill="#BA6156"/>
<path d="M66.0081 6.11926H60.0421H54.0761H48.1101H41.9911H36.0251H30.0591H24.0931H17.8976V12.0853H11.9316V17.9748V24.1703H17.9741H24.0931H30.0591H35.9486V30.1363H30.0591H24.0931H17.9741H11.9316V36.0258V42.0683H17.9741H24.0931H30.0591H35.9486V48.0343H30.0591H24.0931H17.9741H11.9316V53.9238V59.9663H17.9741H24.0931H30.0591H35.9486V66.0853H30.0591H24.0931H17.9741H11.9316V71.9748V78.0173H17.9741H24.0931H30.0591H35.9486V84.1363H41.9146V90.0258V95.9918V101.958V108H48.1101H54.0761H59.9656V101.958V95.9918V90.0258V84.1363H65.9316V78.0173H71.8976V71.9748V66.0088V59.8898V53.9238V47.9578V41.9918V36.0258V30.0598V24.0938V17.9748V12.0088V6.11926H66.0081Z" fill="#F7C8A1"/>
<path d="M95.9911 78.0168H90.0251H84.0591H78.0166V84.1358H84.0591H90.0251H95.9911H102.034V78.0168H95.9911Z" fill="#4B5BAB"/>
<path d="M95.9911 18.0513H90.0251H84.0591H78.0166V24.0938V30.0598V36.0258V41.9918V47.9578V53.9238V59.8898V66.0088V71.9748V78.0173H84.0591H90.0251H95.9911H102.034V71.9748V66.0088V59.8898V53.9238V47.9578V41.9918V36.0258V30.0598V24.0938V18.0513H95.9911Z" fill="#4DA6FF"/>
<path d="M90.0251 84.1362H84.0591H78.0931H71.9741H65.9316V90.1022H71.9741H78.0931H84.0591H90.0251H95.9911H102.034V84.1362H95.9911H90.0251Z" fill="#272736"/>
<path d="M84.0591 18.0511H90.0251H95.9911H102.034V24.0936V30.0596V36.0256V41.9916V47.9576V53.9236V59.8896V66.0086V71.9746V77.9406V84.1361H108V77.9406V71.9746V66.0086V59.8896V53.9236V47.9576V41.9916V36.0256V30.0596V24.0936V17.9746V12.0851H102.11H95.9911H90.0251H84.0591H78.0166V18.0511H84.0591Z" fill="#272736"/>
<path d="M78.0174 6.11926H71.8984V12.0853H78.0174V6.11926Z" fill="#272736"/>
<path d="M59.9658 95.9919V101.958V108H65.9318V101.958V95.9919V90.1024H59.9658V95.9919Z" fill="#272736"/>
<path d="M59.966 108H54V113.966H59.966V108Z" fill="#272736"/>
<path d="M41.915 113.966V120.085H48.1105H54V113.966H48.1105H41.915Z" fill="#272736"/>
<path d="M41.9152 108H35.9492V113.966H41.9152V108Z" fill="#272736"/>
<path d="M35.9486 95.9918V90.0258V84.1362H30.0591H24.0931H17.9741H11.9316V90.1022H17.9741H24.0931H29.9826V95.9918V101.958V108H35.9486V101.958V95.9918Z" fill="#272736"/>
<path d="M24.0931 6.1191H30.0591H36.0251H41.9911H48.1101H54.0761H60.0421H66.0081H71.8976V0.00012207H66.0081H60.0421H54.0761H48.1101H41.9911H36.0251H30.0591H24.0931H17.9741H11.9316V6.1191H17.9741H24.0931Z" fill="#272736"/>
<path d="M11.9318 78.0168H5.96582V84.1358H11.9318V78.0168Z" fill="#272736"/>
<path d="M11.9318 6.11926H5.96582V12.0853H11.9318V6.11926Z" fill="#272736"/>
<path d="M5.966 71.9746V66.0086V59.8896V53.9236V47.9576V41.9916V36.0256V30.0596V24.0936V17.9746V12.0851H0V17.9746V24.0936V30.0596V36.0256V41.9916V47.9576V53.9236V59.8896V66.0086V71.9746V78.0171H5.966V71.9746Z" fill="#272736"/>
<path d="M71.8984 17.9746V24.0936V30.0596V36.0256V41.9916V47.9576V53.9236V59.8896V66.0086V71.9746V78.0171H78.0174V71.9746V66.0086V59.8896V53.9236V47.9576V41.9916V36.0256V30.0596V24.0936V17.9746V12.0851H71.8984V17.9746Z" fill="#FFFFEB"/>
</svg>
