<svg width="120" height="134" viewBox="0 0 120 134" fill="none" xmlns="http://www.w3.org/2000/svg">
<path d="M13.3328 128.888V124.444H8.88905V120H4.44434V31.111H8.88905V26.6663H13.3328V22.2216H84.444V17.7779H88.8887V13.3332H93.3334V8.8885H97.7771V22.2216H106.666V26.6663H111.111V31.111H115.555V120H111.111V124.444H106.666V128.888H13.3328Z" fill="#FFFFD3"/>
<path d="M17.7777 26.6665H13.333V22.2218H17.7777V26.6665Z" fill="#FFE27F"/>
<path d="M13.3334 31.1112H8.88867V26.6665H13.3334V31.1112Z" fill="#FFE27F"/>
<path d="M8.88905 35.5558H4.44434V31.1111H8.88905V35.5558Z" fill="#FFE27F"/>
<path d="M102.221 26.6666H97.7764V22.2219H102.221V26.6666Z" fill="#FFE27F"/>
<path d="M106.666 26.6666H102.222V22.2219H106.666V26.6666Z" fill="#FFE27F"/>
<path d="M111.111 31.1112H106.666V26.6665H111.111V31.1112Z" fill="#FFE27F"/>
<path d="M115.556 35.556H111.111V31.1113H115.556V35.556Z" fill="#FFE27F"/>
<path d="M84.4437 26.6666H79.999V22.2219H84.4437V26.6666Z" fill="#FFE27F"/>
<path d="M88.888 22.2219H84.4434V17.7772H88.888V22.2219Z" fill="#FFE27F"/>
<path d="M93.3334 17.7778H88.8887V13.3331H93.3334V17.7778Z" fill="#FFE27F"/>
<path d="M97.7777 13.3333H93.333V8.88857H97.7777V13.3333Z" fill="#FFE27F"/>
<path d="M97.7777 17.7778H93.333V13.3331H97.7777V17.7778Z" fill="#FFE27F"/>
<path d="M97.7777 22.2219H93.333V17.7772H97.7777V22.2219Z" fill="#FFE27F"/>
<path d="M80.0004 26.6666H75.5557V22.2219H80.0004V26.6666Z" fill="#FFE27F"/>
<path d="M75.555 26.6666H71.1104V22.2219H75.555V26.6666Z" fill="#FFE27F"/>
<path d="M71.1107 26.6666H66.666V22.2219H71.1107V26.6666Z" fill="#FFE27F"/>
<path d="M66.6674 26.6666H62.2227V22.2219H66.6674V26.6666Z" fill="#FFE27F"/>
<path d="M22.2221 26.6666H17.7773V22.2219H22.2221V26.6666Z" fill="#FFE27F"/>
<path d="M26.6664 26.6666H22.2217V22.2219H26.6664V26.6666Z" fill="#FFE27F"/>
<path d="M31.1107 26.6666H26.666V22.2219H31.1107V26.6666Z" fill="#FFE27F"/>
<path d="M35.5551 26.6666H31.1104V22.2219H35.5551V26.6666Z" fill="#FFE27F"/>
<path d="M39.9994 26.6666H35.5547V22.2219H39.9994V26.6666Z" fill="#FFE27F"/>
<path d="M44.4447 26.6666H40V22.2219H44.4447V26.6666Z" fill="#FFE27F"/>
<path d="M48.8881 26.6666H44.4434V22.2219H48.8881V26.6666Z" fill="#FFE27F"/>
<path d="M53.3324 26.6666H48.8877V22.2219H53.3324V26.6666Z" fill="#FFE27F"/>
<path d="M57.7777 26.6666H53.333V22.2219H57.7777V26.6666Z" fill="#FFE27F"/>
<path d="M62.222 26.6666H57.7773V22.2219H62.222V26.6666Z" fill="#FFE27F"/>
<path d="M17.7777 133.333H13.333V128.888H17.7777V133.333Z" fill="#000600"/>
<path d="M13.3344 128.888H8.88965V124.444H13.3344V128.888Z" fill="#000600"/>
<path d="M8.88905 124.443H4.44434V119.999H8.88905V124.443Z" fill="#000600"/>
<path d="M4.44469 120H0V115.555H4.44469V120Z" fill="#000600"/>
<path d="M4.44469 115.555H0V111.11H4.44469V115.555Z" fill="#000600"/>
<path d="M4.44469 111.11H0V106.666H4.44469V111.11Z" fill="#000600"/>
<path d="M4.44469 106.667H0V102.222H4.44469V106.667Z" fill="#000600"/>
<path d="M4.44469 102.222H0V97.7772H4.44469V102.222Z" fill="#000600"/>
<path d="M4.44469 97.7773H0V93.3327H4.44469V97.7773Z" fill="#000600"/>
<path d="M4.44469 93.3324H0V88.8877H4.44469V93.3324Z" fill="#000600"/>
<path d="M4.44469 88.8888H0V84.4441H4.44469V88.8888Z" fill="#000600"/>
<path d="M4.44469 84.4442H0V79.9995H4.44469V84.4442Z" fill="#000600"/>
<path d="M4.44469 79.9993H0V75.5546H4.44469V79.9993Z" fill="#000600"/>
<path d="M120 120H115.556V115.555H120V120Z" fill="#000600"/>
<path d="M115.556 124.443H111.111V119.999H115.556V124.443Z" fill="#000600"/>
<path d="M111.112 128.888H106.667V124.444H111.112V128.888Z" fill="#000600"/>
<path d="M106.667 133.333H102.223V128.888H106.667V133.333Z" fill="#000600"/>
<path d="M102.222 133.333H97.7773V128.888H102.222V133.333Z" fill="#000600"/>
<path d="M97.7787 133.333H93.334V128.888H97.7787V133.333Z" fill="#000600"/>
<path d="M93.3334 133.333H88.8887V128.888H93.3334V133.333Z" fill="#000600"/>
<path d="M88.889 133.333H84.4443V128.888H88.889V133.333Z" fill="#000600"/>
<path d="M84.4447 133.333H80V128.888H84.4447V133.333Z" fill="#000600"/>
<path d="M80.0004 133.333H75.5557V128.888H80.0004V133.333Z" fill="#000600"/>
<path d="M75.556 133.333H71.1113V128.888H75.556V133.333Z" fill="#000600"/>
<path d="M71.1117 133.333H66.667V128.888H71.1117V133.333Z" fill="#000600"/>
<path d="M66.6674 133.333H62.2227V128.888H66.6674V133.333Z" fill="#000600"/>
<path d="M22.2221 133.333H17.7773V128.888H22.2221V133.333Z" fill="#000600"/>
<path d="M26.6673 133.333H22.2227V128.888H26.6673V133.333Z" fill="#000600"/>
<path d="M31.1117 133.333H26.667V128.888H31.1117V133.333Z" fill="#000600"/>
<path d="M35.556 133.333H31.1113V128.888H35.556V133.333Z" fill="#000600"/>
<path d="M40.0003 133.333H35.5557V128.888H40.0003V133.333Z" fill="#000600"/>
<path d="M44.4447 133.333H40V128.888H44.4447V133.333Z" fill="#000600"/>
<path d="M48.8891 133.333H44.4443V128.888H48.8891V133.333Z" fill="#000600"/>
<path d="M53.3334 133.333H48.8887V128.888H53.3334V133.333Z" fill="#000600"/>
<path d="M57.7777 133.333H53.333V128.888H57.7777V133.333Z" fill="#000600"/>
<path d="M62.223 133.333H57.7783V128.888H62.223V133.333Z" fill="#000600"/>
<path d="M17.7777 22.2211H13.333V17.7764H17.7777V22.2211Z" fill="#000600"/>
<path d="M13.3344 26.6659H8.88965V22.2212H13.3344V26.6659Z" fill="#000600"/>
<path d="M8.88905 31.111H4.44434V26.6662H8.88905V31.111Z" fill="#000600"/>
<path d="M4.44469 35.5557H0V31.111H4.44469V35.5557Z" fill="#000600"/>
<path d="M4.44469 40.0002H0V35.5555H4.44469V40.0002Z" fill="#000600"/>
<path d="M4.44469 44.4438H0V39.9991H4.44469V44.4438Z" fill="#000600"/>
<path d="M4.44469 48.8885H0V44.4439H4.44469V48.8885Z" fill="#000600"/>
<path d="M4.44469 53.3333H0V48.8885H4.44469V53.3333Z" fill="#000600"/>
<path d="M4.44469 57.777H0V53.3323H4.44469V57.777Z" fill="#000600"/>
<path d="M4.44469 62.2214H0V57.7767H4.44469V62.2214Z" fill="#000600"/>
<path d="M4.44469 66.6664H0V62.2217H4.44469V66.6664Z" fill="#000600"/>
<path d="M4.44469 71.1111H0V66.6664H4.44469V71.1111Z" fill="#000600"/>
<path d="M4.44469 75.5548H0V71.1101H4.44469V75.5548Z" fill="#000600"/>
<path d="M106.667 22.2209H102.223V17.7762H106.667V22.2209Z" fill="#000600"/>
<path d="M111.112 26.6658H106.667V22.2211H111.112V26.6658Z" fill="#000600"/>
<path d="M115.557 31.111H111.112V26.6662H115.557V31.111Z" fill="#000600"/>
<path d="M120 35.5554H115.556V31.1107H120V35.5554Z" fill="#000600"/>
<path d="M120 40H115.556V35.5553H120V40Z" fill="#000600"/>
<path d="M120 44.4438H115.556V39.9991H120V44.4438Z" fill="#000600"/>
<path d="M120 48.8884H115.556V44.4437H120V48.8884Z" fill="#000600"/>
<path d="M120 53.3331H115.556V48.8884H120V53.3331Z" fill="#000600"/>
<path d="M120 57.777H115.556V53.3323H120V57.777Z" fill="#000600"/>
<path d="M120 62.2213H115.556V57.7766H120V62.2213Z" fill="#000600"/>
<path d="M120 66.6664H115.556V62.2217H120V66.6664Z" fill="#000600"/>
<path d="M120 71.1111H115.556V66.6664H120V71.1111Z" fill="#000600"/>
<path d="M120 75.5547H115.556V71.11H120V75.5547Z" fill="#000600"/>
<path d="M120 115.555H115.556V111.11H120V115.555Z" fill="#000600"/>
<path d="M120 111.11H115.556V106.666H120V111.11Z" fill="#000600"/>
<path d="M120 106.666H115.556V102.222H120V106.666Z" fill="#000600"/>
<path d="M120 102.222H115.556V97.7771H120V102.222Z" fill="#000600"/>
<path d="M120 97.7772H115.556V93.3325H120V97.7772Z" fill="#000600"/>
<path d="M120 93.3325H115.556V88.8878H120V93.3325Z" fill="#000600"/>
<path d="M120 88.8887H115.556V84.444H120V88.8887Z" fill="#000600"/>
<path d="M120 84.4441H115.556V79.9994H120V84.4441Z" fill="#000600"/>
<path d="M120 79.9995H115.556V75.5548H120V79.9995Z" fill="#000600"/>
<path d="M102.221 22.2211H97.7764V17.7764H102.221V22.2211Z" fill="#000600"/>
<path d="M84.4437 22.2211H79.999V17.7764H84.4437V22.2211Z" fill="#000600"/>
<path d="M80.0004 22.2211H75.5557V17.7764H80.0004V22.2211Z" fill="#000600"/>
<path d="M75.555 22.2211H71.1104V17.7764H75.555V22.2211Z" fill="#000600"/>
<path d="M71.1107 22.2211H66.666V17.7764H71.1107V22.2211Z" fill="#000600"/>
<path d="M66.6674 22.2211H62.2227V17.7764H66.6674V22.2211Z" fill="#000600"/>
<path d="M22.2221 22.2209H17.7773V17.7762H22.2221V22.2209Z" fill="#000600"/>
<path d="M26.6664 22.2211H22.2217V17.7764H26.6664V22.2211Z" fill="#000600"/>
<path d="M31.1107 22.2211H26.666V17.7764H31.1107V22.2211Z" fill="#000600"/>
<path d="M35.5551 22.2211H31.1104V17.7764H35.5551V22.2211Z" fill="#000600"/>
<path d="M39.9994 22.2211H35.5547V17.7764H39.9994V22.2211Z" fill="#000600"/>
<path d="M44.4447 22.2211H40V17.7764H44.4447V22.2211Z" fill="#000600"/>
<path d="M48.8881 22.2211H44.4434V17.7764H48.8881V22.2211Z" fill="#000600"/>
<path d="M53.3324 22.2211H48.8877V17.7764H53.3324V22.2211Z" fill="#000600"/>
<path d="M57.7777 22.2211H53.333V17.7764H57.7777V22.2211Z" fill="#000600"/>
<path d="M62.222 22.2211H57.7773V17.7764H62.222V22.2211Z" fill="#000600"/>
<path d="M102.222 17.7776H97.7773V13.3329H102.222V17.7776Z" fill="#000600"/>
<path d="M102.222 13.333H97.7773V8.88832H102.222V13.333Z" fill="#000600"/>
<path d="M102.222 8.88831H97.7773V4.44359H102.222V8.88831Z" fill="#000600"/>
<path d="M102.222 4.4447H97.7773V-1.43051e-05H102.222V4.4447Z" fill="#000600"/>
<path d="M97.7787 8.88831H93.334V4.44359H97.7787V8.88831Z" fill="#000600"/>
<path d="M93.3344 13.333H88.8896V8.88832H93.3344V13.333Z" fill="#000600"/>
<path d="M88.889 17.7775H84.4443V13.3327H88.889V17.7775Z" fill="#000600"/>
</svg>
