<svg width="120" height="134" viewBox="0 0 120 134" fill="none" xmlns="http://www.w3.org/2000/svg">
<path d="M106.668 128.888V124.444H111.112V120H115.557V31.111H111.112V26.6663H106.668V22.2216H35.557V17.7779H31.1123V13.3332H26.6676V8.8885H22.2239V22.2216H13.3345V26.6663H8.8898V31.111H4.4461V120H8.8898V124.444H13.3345V128.888H106.668Z" fill="#FFFFD3"/>
<path d="M102.223 26.6665H106.668V22.2218H102.223V26.6665Z" fill="#FFE27F"/>
<path d="M106.667 31.1112H111.111V26.6665H106.667V31.1112Z" fill="#FFE27F"/>
<path d="M111.112 35.5558H115.557V31.1111H111.112V35.5558Z" fill="#FFE27F"/>
<path d="M17.7799 26.6667H22.2246V22.2221H17.7799V26.6667Z" fill="#FFE27F"/>
<path d="M13.3346 26.6667H17.7793V22.2221H13.3346V26.6667Z" fill="#FFE27F"/>
<path d="M8.89028 31.1112H13.335V26.6665H8.89028V31.1112Z" fill="#FFE27F"/>
<path d="M4.44496 35.556H8.88965V31.1113H4.44496V35.556Z" fill="#FFE27F"/>
<path d="M35.5572 26.6667H40.002V22.2221H35.5572V26.6667Z" fill="#FFE27F"/>
<path d="M31.1129 22.2219H35.5576V17.7772H31.1129V22.2219Z" fill="#FFE27F"/>
<path d="M26.6676 17.7778H31.1123V13.3331H26.6676V17.7778Z" fill="#FFE27F"/>
<path d="M22.2233 13.3333H26.668V8.88857H22.2233V13.3333Z" fill="#FFE27F"/>
<path d="M22.2233 17.7778H26.668V13.3331H22.2233V17.7778Z" fill="#FFE27F"/>
<path d="M22.2233 22.2219H26.668V17.7772H22.2233V22.2219Z" fill="#FFE27F"/>
<path d="M40.0006 26.6667H44.4453V22.2221H40.0006V26.6667Z" fill="#FFE27F"/>
<path d="M44.4459 26.6667H48.8906V22.2221H44.4459V26.6667Z" fill="#FFE27F"/>
<path d="M48.8902 26.6667H53.335V22.2221H48.8902V26.6667Z" fill="#FFE27F"/>
<path d="M53.3336 26.6667H57.7783V22.2221H53.3336V26.6667Z" fill="#FFE27F"/>
<path d="M97.7789 26.6667H102.224V22.2221H97.7789V26.6667Z" fill="#FFE27F"/>
<path d="M93.3346 26.6667H97.7793V22.2221H93.3346V26.6667Z" fill="#FFE27F"/>
<path d="M88.8902 26.6667H93.335V22.2221H88.8902V26.6667Z" fill="#FFE27F"/>
<path d="M84.4459 26.6667H88.8906V22.2221H84.4459V26.6667Z" fill="#FFE27F"/>
<path d="M80.0016 26.6667H84.4463V22.2221H80.0016V26.6667Z" fill="#FFE27F"/>
<path d="M75.5563 26.6667H80.001V22.2221H75.5563V26.6667Z" fill="#FFE27F"/>
<path d="M71.1129 26.6667H75.5576V22.2221H71.1129V26.6667Z" fill="#FFE27F"/>
<path d="M66.6686 26.6667H71.1133V22.2221H66.6686V26.6667Z" fill="#FFE27F"/>
<path d="M62.2233 26.6667H66.668V22.2221H62.2233V26.6667Z" fill="#FFE27F"/>
<path d="M57.7789 26.6667H62.2236V22.2221H57.7789V26.6667Z" fill="#FFE27F"/>
<path d="M102.223 133.333H106.668V128.888H102.223V133.333Z" fill="#000600"/>
<path d="M106.667 128.888H111.111V124.444H106.667V128.888Z" fill="#000600"/>
<path d="M111.112 124.443H115.557V119.999H111.112V124.443Z" fill="#000600"/>
<path d="M115.556 120H120.001V115.555H115.556V120Z" fill="#000600"/>
<path d="M115.556 115.555H120.001V111.11H115.556V115.555Z" fill="#000600"/>
<path d="M115.556 111.11H120.001V106.666H115.556V111.11Z" fill="#000600"/>
<path d="M115.556 106.667H120.001V102.222H115.556V106.667Z" fill="#000600"/>
<path d="M115.556 102.222H120.001V97.7772H115.556V102.222Z" fill="#000600"/>
<path d="M115.556 97.7773H120.001V93.3327H115.556V97.7773Z" fill="#000600"/>
<path d="M115.556 93.3324H120.001V88.8877H115.556V93.3324Z" fill="#000600"/>
<path d="M115.556 88.8888H120.001V84.4441H115.556V88.8888Z" fill="#000600"/>
<path d="M115.556 84.4442H120.001V79.9995H115.556V84.4442Z" fill="#000600"/>
<path d="M115.556 79.9993H120.001V75.5546H115.556V79.9993Z" fill="#000600"/>
<path d="M0.000626564 120H4.44531V115.555H0.000626564V120Z" fill="#000600"/>
<path d="M4.44496 124.443H8.88965V119.999H4.44496V124.443Z" fill="#000600"/>
<path d="M8.8893 128.888H13.334V124.444H8.8893V128.888Z" fill="#000600"/>
<path d="M13.3336 133.333H17.7783V128.888H13.3336V133.333Z" fill="#000600"/>
<path d="M17.7789 133.333H22.2236V128.888H17.7789V133.333Z" fill="#000600"/>
<path d="M22.2223 133.333H26.667V128.888H22.2223V133.333Z" fill="#000600"/>
<path d="M26.6666 133.333H31.1113V128.888H26.6666V133.333Z" fill="#000600"/>
<path d="M31.112 133.333H35.5566V128.888H31.112V133.333Z" fill="#000600"/>
<path d="M35.5563 133.333H40.001V128.888H35.5563V133.333Z" fill="#000600"/>
<path d="M40.0006 133.333H44.4453V128.888H40.0006V133.333Z" fill="#000600"/>
<path d="M44.445 133.333H48.8896V128.888H44.445V133.333Z" fill="#000600"/>
<path d="M48.8893 133.333H53.334V128.888H48.8893V133.333Z" fill="#000600"/>
<path d="M53.3336 133.333H57.7783V128.888H53.3336V133.333Z" fill="#000600"/>
<path d="M97.7789 133.333H102.224V128.888H97.7789V133.333Z" fill="#000600"/>
<path d="M93.3336 133.333H97.7783V128.888H93.3336V133.333Z" fill="#000600"/>
<path d="M88.8893 133.333H93.334V128.888H88.8893V133.333Z" fill="#000600"/>
<path d="M84.4459 133.333H88.8906V128.888H84.4459V133.333Z" fill="#000600"/>
<path d="M80.0006 133.333H84.4453V128.888H80.0006V133.333Z" fill="#000600"/>
<path d="M75.5563 133.333H80.001V128.888H75.5563V133.333Z" fill="#000600"/>
<path d="M71.1119 133.333H75.5566V128.888H71.1119V133.333Z" fill="#000600"/>
<path d="M66.6676 133.333H71.1123V128.888H66.6676V133.333Z" fill="#000600"/>
<path d="M62.2233 133.333H66.668V128.888H62.2233V133.333Z" fill="#000600"/>
<path d="M57.778 133.333H62.2227V128.888H57.778V133.333Z" fill="#000600"/>
<path d="M102.223 22.2211H106.668V17.7764H102.223V22.2211Z" fill="#000600"/>
<path d="M106.667 26.6659H111.111V22.2212H106.667V26.6659Z" fill="#000600"/>
<path d="M111.112 31.111H115.557V26.6662H111.112V31.111Z" fill="#000600"/>
<path d="M115.556 35.5557H120.001V31.111H115.556V35.5557Z" fill="#000600"/>
<path d="M115.556 40.0001H120.001V35.5554H115.556V40.0001Z" fill="#000600"/>
<path d="M115.556 44.4438H120.001V39.9991H115.556V44.4438Z" fill="#000600"/>
<path d="M115.556 48.8887H120.001V44.444H115.556V48.8887Z" fill="#000600"/>
<path d="M115.556 53.3333H120.001V48.8885H115.556V53.3333Z" fill="#000600"/>
<path d="M115.556 57.777H120.001V53.3323H115.556V57.777Z" fill="#000600"/>
<path d="M115.556 62.2214H120.001V57.7767H115.556V62.2214Z" fill="#000600"/>
<path d="M115.556 66.6664H120.001V62.2217H115.556V66.6664Z" fill="#000600"/>
<path d="M115.556 71.1111H120.001V66.6664H115.556V71.1111Z" fill="#000600"/>
<path d="M115.556 75.5548H120.001V71.1101H115.556V75.5548Z" fill="#000600"/>
<path d="M13.3336 22.2211H17.7783V17.7764H13.3336V22.2211Z" fill="#000600"/>
<path d="M8.8893 26.6658H13.334V22.2211H8.8893V26.6658Z" fill="#000600"/>
<path d="M4.44399 31.111H8.88867V26.6662H4.44399V31.111Z" fill="#000600"/>
<path d="M0.000626564 35.5554H4.44531V31.1107H0.000626564V35.5554Z" fill="#000600"/>
<path d="M0.000626564 40H4.44531V35.5553H0.000626564V40Z" fill="#000600"/>
<path d="M0.000626564 44.4438H4.44531V39.9991H0.000626564V44.4438Z" fill="#000600"/>
<path d="M0.000626564 48.8884H4.44531V44.4437H0.000626564V48.8884Z" fill="#000600"/>
<path d="M0.000626564 53.3331H4.44531V48.8884H0.000626564V53.3331Z" fill="#000600"/>
<path d="M0.000626564 57.777H4.44531V53.3323H0.000626564V57.777Z" fill="#000600"/>
<path d="M0.000626564 62.2213H4.44531V57.7766H0.000626564V62.2213Z" fill="#000600"/>
<path d="M0.000626564 66.6664H4.44531V62.2217H0.000626564V66.6664Z" fill="#000600"/>
<path d="M0.000626564 71.1111H4.44531V66.6664H0.000626564V71.1111Z" fill="#000600"/>
<path d="M0.000626564 75.5547H4.44531V71.11H0.000626564V75.5547Z" fill="#000600"/>
<path d="M0.000626564 115.555H4.44531V111.11H0.000626564V115.555Z" fill="#000600"/>
<path d="M0.000626564 111.11H4.44531V106.666H0.000626564V111.11Z" fill="#000600"/>
<path d="M0.000626564 106.666H4.44531V102.222H0.000626564V106.666Z" fill="#000600"/>
<path d="M0.000626564 102.222H4.44531V97.7771H0.000626564V102.222Z" fill="#000600"/>
<path d="M0.000626564 97.7772H4.44531V93.3325H0.000626564V97.7772Z" fill="#000600"/>
<path d="M0.000626564 93.3325H4.44531V88.8878H0.000626564V93.3325Z" fill="#000600"/>
<path d="M0.000626564 88.8887H4.44531V84.444H0.000626564V88.8887Z" fill="#000600"/>
<path d="M0.000626564 84.4441H4.44531V79.9994H0.000626564V84.4441Z" fill="#000600"/>
<path d="M0.000626564 79.9995H4.44531V75.5548H0.000626564V79.9995Z" fill="#000600"/>
<path d="M17.7799 22.2211H22.2246V17.7764H17.7799V22.2211Z" fill="#000600"/>
<path d="M35.5572 22.2211H40.002V17.7764H35.5572V22.2211Z" fill="#000600"/>
<path d="M40.0006 22.2211H44.4453V17.7764H40.0006V22.2211Z" fill="#000600"/>
<path d="M44.4459 22.2211H48.8906V17.7764H44.4459V22.2211Z" fill="#000600"/>
<path d="M48.8902 22.2211H53.335V17.7764H48.8902V22.2211Z" fill="#000600"/>
<path d="M53.3336 22.2211H57.7783V17.7764H53.3336V22.2211Z" fill="#000600"/>
<path d="M97.7789 22.2209H102.224V17.7762H97.7789V22.2209Z" fill="#000600"/>
<path d="M93.3346 22.2211H97.7793V17.7764H93.3346V22.2211Z" fill="#000600"/>
<path d="M88.8902 22.2211H93.335V17.7764H88.8902V22.2211Z" fill="#000600"/>
<path d="M84.4459 22.2211H88.8906V17.7764H84.4459V22.2211Z" fill="#000600"/>
<path d="M80.0016 22.2211H84.4463V17.7764H80.0016V22.2211Z" fill="#000600"/>
<path d="M75.5563 22.2211H80.001V17.7764H75.5563V22.2211Z" fill="#000600"/>
<path d="M71.1129 22.2211H75.5576V17.7764H71.1129V22.2211Z" fill="#000600"/>
<path d="M66.6686 22.2211H71.1133V17.7764H66.6686V22.2211Z" fill="#000600"/>
<path d="M62.2233 22.2211H66.668V17.7764H62.2233V22.2211Z" fill="#000600"/>
<path d="M57.7789 22.2211H62.2236V17.7764H57.7789V22.2211Z" fill="#000600"/>
<path d="M17.7789 17.7776H22.2236V13.3329H17.7789V17.7776Z" fill="#000600"/>
<path d="M17.7789 13.333H22.2236V8.88832H17.7789V13.333Z" fill="#000600"/>
<path d="M17.7789 8.88831H22.2236V4.44359H17.7789V8.88831Z" fill="#000600"/>
<path d="M17.7789 4.4447H22.2236V-1.43051e-05H17.7789V4.4447Z" fill="#000600"/>
<path d="M22.2223 8.88831H26.667V4.44359H22.2223V8.88831Z" fill="#000600"/>
<path d="M26.6666 13.333H31.1113V8.88832H26.6666V13.333Z" fill="#000600"/>
<path d="M31.112 17.7775H35.5566V13.3327H31.112V17.7775Z" fill="#000600"/>
</svg>
