<svg width="165" height="52" viewBox="0 0 165 52" fill="none" xmlns="http://www.w3.org/2000/svg">
<path d="M10.5853 5.12622V10.2525H5.45898V41.0078H10.5853V46.1341H154.747V41.0078H159.873V10.2525H154.747V5.12622H10.5853Z" fill="white"/>
<path d="M10.5853 5.12634H5.45898V10.2526H10.5853V5.12634Z" fill="#000600"/>
<path d="M5.45927 10.2526H0.333008V15.3788H5.45927V10.2526Z" fill="#000600"/>
<path d="M10.5853 41.0078H5.45898V46.1341H10.5853V41.0078Z" fill="#000600"/>
<path d="M5.45927 35.8816H0.333008V41.0079H5.45927V35.8816Z" fill="#000600"/>
<path d="M5.45927 30.7552H0.333008V35.8815H5.45927V30.7552Z" fill="#000600"/>
<path d="M5.45927 25.6302H0.333008V30.7565H5.45927V25.6302Z" fill="#000600"/>
<path d="M5.45927 20.5039H0.333008V25.6302H5.45927V20.5039Z" fill="#000600"/>
<path d="M5.45927 15.3777H0.333008V20.5039H5.45927V15.3777Z" fill="#000600"/>
<path d="M15.7112 46.134H10.585V51.2603H15.7112V46.134Z" fill="#000600"/>
<path d="M149.62 46.134H13.6338V51.2591H149.62H154.747V46.134H149.62Z" fill="#000600"/>
<path d="M159.873 41.0078H154.747V46.1341H159.873V41.0078Z" fill="#000600"/>
<path d="M10.5853 35.943H5.45898V41.0693H10.5853V35.943Z" fill="#C4C5D6"/>
<path d="M15.7112 41.0695H10.585V46.1957H15.7112V41.0695Z" fill="#C4C5D6"/>
<path d="M149.62 41.0695H13.6338V46.1945H149.62H154.747V41.0695H149.62Z" fill="#C4C5D6"/>
<path d="M159.873 35.943H154.747V41.0693H159.873V35.943Z" fill="#C4C5D6"/>
<path d="M164.999 35.8816H159.873V41.0079H164.999V35.8816Z" fill="#000600"/>
<path d="M159.873 5.12634H154.747V10.2526H159.873V5.12634Z" fill="#000600"/>
<path d="M10.585 0V5.12625H154.747V0H10.585Z" fill="#000600"/>
<path d="M164.999 10.2526H159.873V15.3788H164.999V10.2526Z" fill="#000600"/>
<path d="M164.999 15.3777H159.873V20.5039H164.999V15.3777Z" fill="#000600"/>
<path d="M164.999 20.5039H159.873V25.6302H164.999V20.5039Z" fill="#000600"/>
<path d="M164.999 25.6302H159.873V30.7565H164.999V25.6302Z" fill="#000600"/>
<path d="M164.999 30.7552H159.873V35.8815H164.999V30.7552Z" fill="#000600"/>
</svg>
