<svg width="208" height="65" viewBox="0 0 208 65" fill="none" xmlns="http://www.w3.org/2000/svg">
<path d="M12.9509 6.47522V12.9505H6.47559V51.7993H12.9509V58.2745H195.05V51.7993H201.525V12.9505H195.05V6.47522H12.9509Z" fill="#488FFF"/>
<path d="M12.9509 6.47534H6.47559V12.9506H12.9509V6.47534Z" fill="#000600"/>
<path d="M6.47528 12.9506H0V19.4259H6.47528V12.9506Z" fill="#000600"/>
<path d="M12.9509 51.7993H6.47559V58.2746H12.9509V51.7993Z" fill="#000600"/>
<path d="M6.47528 45.324H0V51.7993H6.47528V45.324Z" fill="#000600"/>
<path d="M6.47528 38.8488H0V45.324H6.47528V38.8488Z" fill="#000600"/>
<path d="M6.47528 32.375H0V38.8503H6.47528V32.375Z" fill="#000600"/>
<path d="M6.47528 25.8997H0V32.375H6.47528V25.8997Z" fill="#000600"/>
<path d="M6.47528 19.4244H0V25.8997H6.47528V19.4244Z" fill="#000600"/>
<path d="M19.4255 58.2745H12.9502V64.7498H19.4255V58.2745Z" fill="#000600"/>
<path d="M188.574 58.2745H16.8018V64.7484H188.574H195.049V58.2745H188.574Z" fill="#000600"/>
<path d="M201.525 51.7993H195.05V58.2746H201.525V51.7993Z" fill="#000600"/>
<path d="M12.9509 45.4016H6.47559V51.8769H12.9509V45.4016Z" fill="#1C69E3"/>
<path d="M19.4255 51.8771H12.9502V58.3523H19.4255V51.8771Z" fill="#1C69E3"/>
<path d="M188.574 51.8771H16.8018V58.3509H188.574H195.049V51.8771H188.574Z" fill="#1C69E3"/>
<path d="M201.525 45.4016H195.05V51.8769H201.525V45.4016Z" fill="#1C69E3"/>
<path d="M208 45.324H201.524V51.7993H208V45.324Z" fill="#000600"/>
<path d="M201.525 6.47534H195.05V12.9506H201.525V6.47534Z" fill="#000600"/>
<path d="M12.9502 0V6.47525H195.049V0H12.9502Z" fill="#000600"/>
<path d="M208 12.9506H201.524V19.4259H208V12.9506Z" fill="#000600"/>
<path d="M208 19.4244H201.524V25.8997H208V19.4244Z" fill="#000600"/>
<path d="M208 25.8997H201.524V32.375H208V25.8997Z" fill="#000600"/>
<path d="M208 32.375H201.524V38.8503H208V32.375Z" fill="#000600"/>
<path d="M208 38.8488H201.524V45.324H208V38.8488Z" fill="#000600"/>
</svg>
