<svg width="96" height="81" viewBox="0 0 96 81" fill="none" xmlns="http://www.w3.org/2000/svg">
<path d="M96 35.1948H90.9463V40.2239H96V35.1948Z" fill="#202126"/>
<path d="M96 30.1685H90.9463V35.195H96V30.1685Z" fill="#202126"/>
<path d="M96 25.1384H90.9463V30.1683H96V25.1384Z" fill="#202126"/>
<path d="M96 20.1121H90.9463V25.1386H96V20.1121Z" fill="#202126"/>
<path d="M90.9453 40.2239H85.8916V45.2461H90.9453V40.2239Z" fill="#202126"/>
<path d="M90.9453 35.1948H85.8916V40.2239H90.9453V35.1948Z" fill="white"/>
<path d="M90.9453 30.1685H85.8916V35.195H90.9453V30.1685Z" fill="white"/>
<path d="M90.9453 25.1384H85.8916V30.1683H90.9453V25.1384Z" fill="white"/>
<path d="M90.9453 20.1121H85.8916V25.1386H90.9453V20.1121Z" fill="white"/>
<path d="M90.9453 15.083H85.8916V20.1121H90.9453V15.083Z" fill="#202126"/>
<path d="M85.8917 45.2454H80.8379V50.2719H85.8917V45.2454Z" fill="#202126"/>
<path d="M85.8917 40.2239H80.8379V45.2461H85.8917V40.2239Z" fill="white"/>
<path d="M85.8917 35.1948H80.8379V40.2239H85.8917V35.1948Z" fill="white"/>
<path d="M85.8917 30.1685H80.8379V35.195H85.8917V30.1685Z" fill="white"/>
<path d="M85.8917 25.1384H80.8379V30.1683H85.8917V25.1384Z" fill="white"/>
<path d="M85.8917 20.1121H80.8379V25.1386H85.8917V20.1121Z" fill="white"/>
<path d="M85.8917 15.083H80.8379V20.1121H85.8917V15.083Z" fill="white"/>
<path d="M85.8917 10.0557H80.8379V15.083H85.8917V10.0557Z" fill="#202126"/>
<path d="M80.8381 50.2717H75.7896V55.3008H80.8381V50.2717Z" fill="#202126"/>
<path d="M80.8381 45.2454H75.7896V50.2719H80.8381V45.2454Z" fill="white"/>
<path d="M80.8381 40.2239H75.7896V45.2461H80.8381V40.2239Z" fill="white"/>
<path d="M80.8381 35.1948H75.7896V40.2239H80.8381V35.1948Z" fill="white"/>
<path d="M80.8381 30.1685H75.7896V35.195H80.8381V30.1685Z" fill="white"/>
<path d="M80.8381 25.1384H75.7896V30.1683H80.8381V25.1384Z" fill="white"/>
<path d="M80.8381 20.1121H75.7896V25.1386H80.8381V20.1121Z" fill="white"/>
<path d="M80.8381 15.083H75.7896V20.1121H80.8381V15.083Z" fill="white"/>
<path d="M80.8381 10.0557H75.7896V15.083H80.8381V10.0557Z" fill="white"/>
<path d="M80.8381 5.02661H75.7896V10.0557H80.8381V5.02661Z" fill="#202126"/>
<path d="M75.7886 55.3018H70.7349V60.3283H75.7886V55.3018Z" fill="#202126"/>
<path d="M75.7886 50.2717H70.7349V55.3008H75.7886V50.2717Z" fill="white"/>
<path d="M75.7886 45.2454H70.7349V50.2719H75.7886V45.2454Z" fill="white"/>
<path d="M75.7886 40.2239H70.7349V45.2461H75.7886V40.2239Z" fill="white"/>
<path d="M75.7886 35.1948H70.7349V40.2239H75.7886V35.1948Z" fill="white"/>
<path d="M75.7886 30.1685H70.7349V35.195H75.7886V30.1685Z" fill="white"/>
<path d="M75.7886 25.1384H70.7349V30.1683H75.7886V25.1384Z" fill="white"/>
<path d="M75.7886 20.1121H70.7349V25.1386H75.7886V20.1121Z" fill="white"/>
<path d="M75.7886 15.083H70.7349V20.1121H75.7886V15.083Z" fill="white"/>
<path d="M75.7886 10.0557H70.7349V15.083H75.7886V10.0557Z" fill="white"/>
<path d="M75.7886 5.02661H70.7349V10.0557H75.7886V5.02661Z" fill="white"/>
<path d="M75.7886 0H70.7349V5.0265H75.7886V0Z" fill="#202126"/>
<path d="M70.7348 55.3018H65.6812V60.3283H70.7348V55.3018Z" fill="#202126"/>
<path d="M70.7348 50.2717H65.6812V55.3008H70.7348V50.2717Z" fill="white"/>
<path d="M70.7348 45.2454H65.6812V50.2719H70.7348V45.2454Z" fill="white"/>
<path d="M70.7348 40.2239H65.6812V45.2461H70.7348V40.2239Z" fill="white"/>
<path d="M70.7348 35.1948H65.6812V40.2239H70.7348V35.1948Z" fill="#202126"/>
<path d="M70.7348 30.1685H65.6812V35.195H70.7348V30.1685Z" fill="white"/>
<path d="M70.7348 25.1384H65.6812V30.1683H70.7348V25.1384Z" fill="white"/>
<path d="M70.7348 20.1121H65.6812V25.1386H70.7348V20.1121Z" fill="white"/>
<path d="M70.7348 15.083H65.6812V20.1121H70.7348V15.083Z" fill="white"/>
<path d="M70.7348 10.0557H65.6812V15.083H70.7348V10.0557Z" fill="white"/>
<path d="M70.7348 5.02661H65.6812V10.0557H70.7348V5.02661Z" fill="white"/>
<path d="M70.7348 0H65.6812V5.0265H70.7348V0Z" fill="#202126"/>
<path d="M65.6805 60.3281H60.6318V65.358H65.6805V60.3281Z" fill="#202126"/>
<path d="M65.6805 55.3018H60.6318V60.3283H65.6805V55.3018Z" fill="#202126"/>
<path d="M65.6805 50.2717H60.6318V55.3008H65.6805V50.2717Z" fill="white"/>
<path d="M65.6805 45.2454H60.6318V50.2719H65.6805V45.2454Z" fill="white"/>
<path d="M65.6805 40.2239H60.6318V45.2461H65.6805V40.2239Z" fill="white"/>
<path d="M65.6805 35.1948H60.6318V40.2239H65.6805V35.1948Z" fill="white"/>
<path d="M65.6805 30.1685H60.6318V35.195H65.6805V30.1685Z" fill="white"/>
<path d="M65.6805 25.1384H60.6318V30.1683H65.6805V25.1384Z" fill="white"/>
<path d="M65.6805 20.1121H60.6318V25.1386H65.6805V20.1121Z" fill="white"/>
<path d="M65.6805 15.083H60.6318V20.1121H65.6805V15.083Z" fill="white"/>
<path d="M65.6805 10.0557H60.6318V15.083H65.6805V10.0557Z" fill="white"/>
<path d="M65.6805 5.02661H60.6318V10.0557H65.6805V5.02661Z" fill="white"/>
<path d="M65.6805 0H60.6318V5.0265H65.6805V0Z" fill="#202126"/>
<path d="M60.6318 65.3572H55.5781V70.3837H60.6318V65.3572Z" fill="#202126"/>
<path d="M60.6318 60.3281H55.5781V65.358H60.6318V60.3281Z" fill="white"/>
<path d="M60.6318 55.3018H55.5781V60.3283H60.6318V55.3018Z" fill="white"/>
<path d="M60.6318 50.2717H55.5781V55.3008H60.6318V50.2717Z" fill="white"/>
<path d="M60.6318 45.2454H55.5781V50.2719H60.6318V45.2454Z" fill="white"/>
<path d="M60.6318 40.2239H55.5781V45.2461H60.6318V40.2239Z" fill="white"/>
<path d="M60.6318 35.1948H55.5781V40.2239H60.6318V35.1948Z" fill="#202126"/>
<path d="M60.6318 30.1685H55.5781V35.195H60.6318V30.1685Z" fill="white"/>
<path d="M60.6318 25.1384H55.5781V30.1683H60.6318V25.1384Z" fill="white"/>
<path d="M60.6318 20.1121H55.5781V25.1386H60.6318V20.1121Z" fill="white"/>
<path d="M60.6318 15.083H55.5781V20.1121H60.6318V15.083Z" fill="white"/>
<path d="M60.6318 10.0557H55.5781V15.083H60.6318V10.0557Z" fill="white"/>
<path d="M60.6318 5.02661H55.5781V10.0557H60.6318V5.02661Z" fill="white"/>
<path d="M60.6318 0H55.5781V5.0265H60.6318V0Z" fill="#202126"/>
<path d="M55.5782 70.3838H50.5244V75.4103H55.5782V70.3838Z" fill="#202126"/>
<path d="M55.5782 65.3572H50.5244V70.3837H55.5782V65.3572Z" fill="white"/>
<path d="M55.5782 60.3281H50.5244V65.358H55.5782V60.3281Z" fill="white"/>
<path d="M55.5782 55.3018H50.5244V60.3283H55.5782V55.3018Z" fill="white"/>
<path d="M55.5782 50.2717H50.5244V55.3008H55.5782V50.2717Z" fill="white"/>
<path d="M55.5782 45.2454H50.5244V50.2719H55.5782V45.2454Z" fill="white"/>
<path d="M55.5782 40.2239H50.5244V45.2461H55.5782V40.2239Z" fill="white"/>
<path d="M55.5782 35.1948H50.5244V40.2239H55.5782V35.1948Z" fill="white"/>
<path d="M55.5782 30.1685H50.5244V35.195H55.5782V30.1685Z" fill="white"/>
<path d="M55.5782 25.1384H50.5244V30.1683H55.5782V25.1384Z" fill="white"/>
<path d="M55.5782 20.1121H50.5244V25.1386H55.5782V20.1121Z" fill="white"/>
<path d="M55.5782 15.083H50.5244V20.1121H55.5782V15.083Z" fill="white"/>
<path d="M55.5782 10.0557H50.5244V15.083H55.5782V10.0557Z" fill="white"/>
<path d="M55.5782 5.02661H50.5244V10.0557H55.5782V5.02661Z" fill="white"/>
<path d="M55.5782 0H50.5244V5.0265H55.5782V0Z" fill="#202126"/>
<path d="M50.5232 75.4102H45.4746V80.4401H50.5232V75.4102Z" fill="#202126"/>
<path d="M50.5232 70.3838H45.4746V75.4103H50.5232V70.3838Z" fill="#202126"/>
<path d="M50.5232 65.3572H45.4746V70.3837H50.5232V65.3572Z" fill="#202126"/>
<path d="M50.5232 60.3281H45.4746V65.358H50.5232V60.3281Z" fill="#202126"/>
<path d="M50.5232 55.3018H45.4746V60.3283H50.5232V55.3018Z" fill="#202126"/>
<path d="M50.5232 50.2717H45.4746V55.3008H50.5232V50.2717Z" fill="white"/>
<path d="M50.5232 45.2454H45.4746V50.2719H50.5232V45.2454Z" fill="white"/>
<path d="M50.5232 40.2239H45.4746V45.2461H50.5232V40.2239Z" fill="white"/>
<path d="M50.5232 35.1948H45.4746V40.2239H50.5232V35.1948Z" fill="#202126"/>
<path d="M50.5232 30.1685H45.4746V35.195H50.5232V30.1685Z" fill="white"/>
<path d="M50.5232 25.1384H45.4746V30.1683H50.5232V25.1384Z" fill="white"/>
<path d="M50.5232 20.1121H45.4746V25.1386H50.5232V20.1121Z" fill="white"/>
<path d="M50.5232 15.083H45.4746V20.1121H50.5232V15.083Z" fill="white"/>
<path d="M50.5232 10.0557H45.4746V15.083H50.5232V10.0557Z" fill="white"/>
<path d="M50.5232 5.02661H45.4746V10.0557H50.5232V5.02661Z" fill="white"/>
<path d="M50.5232 0H45.4746V5.0265H50.5232V0Z" fill="#202126"/>
<path d="M45.4747 55.3018H40.4209V60.3283H45.4747V55.3018Z" fill="#202126"/>
<path d="M45.4747 50.2717H40.4209V55.3008H45.4747V50.2717Z" fill="white"/>
<path d="M45.4747 45.2454H40.4209V50.2719H45.4747V45.2454Z" fill="white"/>
<path d="M45.4747 40.2239H40.4209V45.2461H45.4747V40.2239Z" fill="white"/>
<path d="M45.4747 35.1948H40.4209V40.2239H45.4747V35.1948Z" fill="white"/>
<path d="M45.4747 30.1685H40.4209V35.195H45.4747V30.1685Z" fill="white"/>
<path d="M45.4747 25.1384H40.4209V30.1683H45.4747V25.1384Z" fill="white"/>
<path d="M45.4747 20.1121H40.4209V25.1386H45.4747V20.1121Z" fill="white"/>
<path d="M45.4747 15.083H40.4209V20.1121H45.4747V15.083Z" fill="white"/>
<path d="M45.4747 10.0557H40.4209V15.083H45.4747V10.0557Z" fill="white"/>
<path d="M45.4747 5.02661H40.4209V10.0557H45.4747V5.02661Z" fill="white"/>
<path d="M45.4747 0H40.4209V5.0265H45.4747V0Z" fill="#202126"/>
<path d="M40.4208 55.3018H35.3672V60.3283H40.4208V55.3018Z" fill="#202126"/>
<path d="M40.4208 50.2717H35.3672V55.3008H40.4208V50.2717Z" fill="white"/>
<path d="M40.4208 45.2454H35.3672V50.2719H40.4208V45.2454Z" fill="white"/>
<path d="M40.4208 40.2239H35.3672V45.2461H40.4208V40.2239Z" fill="white"/>
<path d="M40.4208 35.1948H35.3672V40.2239H40.4208V35.1948Z" fill="#202126"/>
<path d="M40.4208 30.1685H35.3672V35.195H40.4208V30.1685Z" fill="white"/>
<path d="M40.4208 25.1384H35.3672V30.1683H40.4208V25.1384Z" fill="white"/>
<path d="M40.4208 20.1121H35.3672V25.1386H40.4208V20.1121Z" fill="white"/>
<path d="M40.4208 15.083H35.3672V20.1121H40.4208V15.083Z" fill="white"/>
<path d="M40.4208 10.0557H35.3672V15.083H40.4208V10.0557Z" fill="white"/>
<path d="M40.4208 5.02661H35.3672V10.0557H40.4208V5.02661Z" fill="white"/>
<path d="M40.4208 0H35.3672V5.0265H40.4208V0Z" fill="#202126"/>
<path d="M35.3667 55.3018H30.313V60.3283H35.3667V55.3018Z" fill="#202126"/>
<path d="M35.3667 50.2717H30.313V55.3008H35.3667V50.2717Z" fill="white"/>
<path d="M35.3667 45.2454H30.313V50.2719H35.3667V45.2454Z" fill="white"/>
<path d="M35.3667 40.2239H30.313V45.2461H35.3667V40.2239Z" fill="white"/>
<path d="M35.3667 35.1948H30.313V40.2239H35.3667V35.1948Z" fill="white"/>
<path d="M35.3667 30.1685H30.313V35.195H35.3667V30.1685Z" fill="white"/>
<path d="M35.3667 25.1384H30.313V30.1683H35.3667V25.1384Z" fill="white"/>
<path d="M35.3667 20.1121H30.313V25.1386H35.3667V20.1121Z" fill="white"/>
<path d="M35.3667 15.083H30.313V20.1121H35.3667V15.083Z" fill="white"/>
<path d="M35.3667 10.0557H30.313V15.083H35.3667V10.0557Z" fill="white"/>
<path d="M35.3667 5.02661H30.313V10.0557H35.3667V5.02661Z" fill="white"/>
<path d="M35.3667 0H30.313V5.0265H35.3667V0Z" fill="#202126"/>
<path d="M30.3129 55.3018H25.2651V60.3283H30.3129V55.3018Z" fill="#202126"/>
<path d="M30.3129 50.2717H25.2651V55.3008H30.3129V50.2717Z" fill="white"/>
<path d="M30.3129 45.2454H25.2651V50.2719H30.3129V45.2454Z" fill="white"/>
<path d="M30.3129 40.2239H25.2651V45.2461H30.3129V40.2239Z" fill="white"/>
<path d="M30.3129 35.1948H25.2651V40.2239H30.3129V35.1948Z" fill="#202126"/>
<path d="M30.3129 30.1685H25.2651V35.195H30.3129V30.1685Z" fill="white"/>
<path d="M30.3129 25.1384H25.2651V30.1683H30.3129V25.1384Z" fill="white"/>
<path d="M30.3129 20.1121H25.2651V25.1386H30.3129V20.1121Z" fill="white"/>
<path d="M30.3129 15.083H25.2651V20.1121H30.3129V15.083Z" fill="white"/>
<path d="M30.3129 10.0557H25.2651V15.083H30.3129V10.0557Z" fill="white"/>
<path d="M30.3129 5.02661H25.2651V10.0557H30.3129V5.02661Z" fill="white"/>
<path d="M30.3129 0H25.2651V5.0265H30.3129V0Z" fill="#202126"/>
<path d="M25.2649 55.3018H20.2163V60.3283H25.2649V55.3018Z" fill="#202126"/>
<path d="M25.2649 50.2717H20.2163V55.3008H25.2649V50.2717Z" fill="white"/>
<path d="M25.2649 45.2454H20.2163V50.2719H25.2649V45.2454Z" fill="white"/>
<path d="M25.2649 40.2239H20.2163V45.2461H25.2649V40.2239Z" fill="white"/>
<path d="M25.2649 35.1948H20.2163V40.2239H25.2649V35.1948Z" fill="white"/>
<path d="M25.2649 30.1685H20.2163V35.195H25.2649V30.1685Z" fill="white"/>
<path d="M25.2649 25.1384H20.2163V30.1683H25.2649V25.1384Z" fill="white"/>
<path d="M25.2649 20.1121H20.2163V25.1386H25.2649V20.1121Z" fill="white"/>
<path d="M25.2649 15.083H20.2163V20.1121H25.2649V15.083Z" fill="white"/>
<path d="M25.2649 10.0557H20.2163V15.083H25.2649V10.0557Z" fill="white"/>
<path d="M25.2649 5.02661H20.2163V10.0557H25.2649V5.02661Z" fill="white"/>
<path d="M25.2649 0H20.2163V5.0265H25.2649V0Z" fill="#202126"/>
<path d="M20.2159 50.2717H15.1621V55.3008H20.2159V50.2717Z" fill="#202126"/>
<path d="M20.2159 45.2454H15.1621V50.2719H20.2159V45.2454Z" fill="white"/>
<path d="M20.2159 40.2239H15.1621V45.2461H20.2159V40.2239Z" fill="white"/>
<path d="M20.2159 35.1948H15.1621V40.2239H20.2159V35.1948Z" fill="white"/>
<path d="M20.2159 30.1685H15.1621V35.195H20.2159V30.1685Z" fill="white"/>
<path d="M20.2159 25.1384H15.1621V30.1683H20.2159V25.1384Z" fill="white"/>
<path d="M20.2159 20.1121H15.1621V25.1386H20.2159V20.1121Z" fill="white"/>
<path d="M20.2159 15.083H15.1621V20.1121H20.2159V15.083Z" fill="white"/>
<path d="M20.2159 10.0557H15.1621V15.083H20.2159V10.0557Z" fill="white"/>
<path d="M20.2159 5.02661H15.1621V10.0557H20.2159V5.02661Z" fill="#202126"/>
<path d="M15.1621 45.2454H10.1084V50.2719H15.1621V45.2454Z" fill="#202126"/>
<path d="M15.1621 40.2239H10.1084V45.2461H15.1621V40.2239Z" fill="white"/>
<path d="M15.1621 35.1948H10.1084V40.2239H15.1621V35.1948Z" fill="white"/>
<path d="M15.1621 30.1685H10.1084V35.195H15.1621V30.1685Z" fill="white"/>
<path d="M15.1621 25.1384H10.1084V30.1683H15.1621V25.1384Z" fill="white"/>
<path d="M15.1621 20.1121H10.1084V25.1386H15.1621V20.1121Z" fill="white"/>
<path d="M15.1621 15.083H10.1084V20.1121H15.1621V15.083Z" fill="white"/>
<path d="M15.1621 10.0557H10.1084V15.083H15.1621V10.0557Z" fill="#202126"/>
<path d="M10.1083 40.2239H5.05469V45.2461H10.1083V40.2239Z" fill="#202126"/>
<path d="M10.1083 35.1948H5.05469V40.2239H10.1083V35.1948Z" fill="white"/>
<path d="M10.1083 30.1685H5.05469V35.195H10.1083V30.1685Z" fill="white"/>
<path d="M10.1083 25.1384H5.05469V30.1683H10.1083V25.1384Z" fill="white"/>
<path d="M10.1083 20.1121H5.05469V25.1386H10.1083V20.1121Z" fill="white"/>
<path d="M10.1083 15.083H5.05469V20.1121H10.1083V15.083Z" fill="#202126"/>
<path d="M5.05366 35.1948H0V40.2239H5.05366V35.1948Z" fill="#202126"/>
<path d="M5.05366 30.1685H0V35.195H5.05366V30.1685Z" fill="#202126"/>
<path d="M5.05366 25.1384H0V30.1683H5.05366V25.1384Z" fill="#202126"/>
<path d="M5.05366 20.1121H0V25.1386H5.05366V20.1121Z" fill="#202126"/>
</svg>
