<svg width="216" height="215" viewBox="0 0 216 215" xmlns="http://www.w3.org/2000/svg">
<g filter="url(#filter0_d_44_5019)">
<path fill-rule="evenodd" clip-rule="evenodd" d="M27.1107 183.594V191.298H188.889V183.594H196.593V175.891H204.296V21.8171H196.593V14.1129H188.889V6.4088H173.481H150.37H27.1107V14.1129H19.4083V21.8171H11.7041V175.891H19.4083V183.594H27.1107Z"/>
<path d="M181.186 184.888L188.89 184.888L188.89 192.593L181.186 192.593L181.186 184.888Z" fill="#D1D1D1"/>
<path d="M188.888 177.184L196.592 177.184L196.592 184.889L188.888 184.889L188.888 177.184Z" fill="#D1D1D1"/>
<path d="M196.592 169.48L204.296 169.48L204.296 177.184L196.592 177.184L196.592 169.48Z" fill="#D1D1D1"/>
<path d="M34.8154 184.888L42.5195 184.888L42.5195 192.593L34.8154 192.593L34.8154 184.888Z" fill="#D1D1D1"/>
<path d="M27.1113 184.888L34.8154 184.888L34.8154 192.593L27.1113 192.593L27.1113 184.888Z" fill="#D1D1D1"/>
<path d="M19.4072 177.184L27.1113 177.184L27.1113 184.889L19.4072 184.889L19.4072 177.184Z" fill="#D1D1D1"/>
<path d="M11.7031 169.48L19.4072 169.48L19.4072 177.184L11.7031 177.184L11.7031 169.48Z" fill="#D1D1D1"/>
<path d="M65.6308 184.888L73.335 184.888L73.335 192.593L65.6308 192.593L65.6308 184.888Z" fill="#D1D1D1"/>
<path d="M58.2958 184.888L66 184.888L66 192.593L58.2958 192.593L58.2958 184.888Z" fill="#D1D1D1"/>
<path d="M50.9618 184.888L58.666 184.888L58.666 192.593L50.9618 192.593L50.9618 184.888Z" fill="#D1D1D1"/>
<path d="M43.6279 184.888L51.332 184.888L51.332 192.593L43.6279 192.593L43.6279 184.888Z" fill="#D1D1D1"/>
<path d="M36.2939 184.888L43.998 184.888L43.998 192.593L36.2939 192.593L36.2939 184.888Z" fill="#D1D1D1"/>
<path d="M57.9258 192.593L65.6299 192.593L65.6299 200.297L57.9258 200.297L57.9258 192.593Z" fill="#000600"/>
<path d="M42.5176 192.593L51 192.593L51 200.297L42.5176 200.297L42.5176 192.593Z" fill="#000600"/>
<path d="M50.2959 192.593L58 192.593L58 200.297L50.2959 200.297L50.2959 192.593Z" fill="#000600"/>
<path d="M73.3329 184.888L81.0371 184.888L81.0371 192.593L73.3329 192.593L73.3329 184.888Z" fill="#D1D1D1"/>
<path d="M81.0371 184.888L88.7412 184.888L88.7412 192.593L81.0371 192.593L81.0371 184.888Z" fill="#D1D1D1"/>
<path d="M88.7411 184.888L96.4453 184.888L96.4453 192.593L88.7411 192.593L88.7411 184.888Z" fill="#D1D1D1"/>
<path d="M96.4433 184.888L104.147 184.888L104.147 192.593L96.4433 192.593L96.4433 184.888Z" fill="#D1D1D1"/>
<path d="M173.481 184.888L181.186 184.888L181.186 192.593L173.481 192.593L173.481 184.888Z" fill="#D1D1D1"/>
<path d="M165.777 184.888L173.481 184.888L173.481 192.593L165.777 192.593L165.777 184.888Z" fill="#D1D1D1"/>
<path d="M158.073 184.888L165.777 184.888L165.777 192.593L158.073 192.593L158.073 184.888Z" fill="#D1D1D1"/>
<path d="M150.371 184.888L158.075 184.888L158.075 192.593L150.371 192.593L150.371 184.888Z" fill="#D1D1D1"/>
<path d="M142.667 184.888L150.371 184.888L150.371 192.593L142.667 192.593L142.667 184.888Z" fill="#D1D1D1"/>
<path d="M134.963 184.888L142.667 184.888L142.667 192.593L134.963 192.593L134.963 184.888Z" fill="#D1D1D1"/>
<path d="M127.26 184.888L134.964 184.888L134.964 192.593L127.26 192.593L127.26 184.888Z" fill="#D1D1D1"/>
<path d="M119.556 184.888L127.26 184.888L127.26 192.593L119.556 192.593L119.556 184.888Z" fill="#D1D1D1"/>
<path d="M111.851 184.888L119.556 184.888L119.556 192.593L111.851 192.593L111.851 184.888Z" fill="#D1D1D1"/>
<path d="M104.147 184.888L111.852 184.888L111.852 192.593L104.147 192.593L104.147 184.888Z" fill="#D1D1D1"/>
<path d="M181.186 0.000122694L188.89 0.00012207L188.89 7.70424L181.186 7.70424L181.186 0.000122694Z" fill="#000600"/>
<path d="M188.888 7.70398L196.592 7.70398L196.592 15.4082L188.888 15.4082L188.888 7.70398Z" fill="#000600"/>
<path d="M196.592 15.4086L204.296 15.4086L204.296 23.1127L196.592 23.1127L196.592 15.4086Z" fill="#000600"/>
<path d="M204.296 23.1107L212 23.1107L212 30.8148L204.296 30.8148L204.296 23.1107Z" fill="#000600"/>
<path d="M204.296 30.8148L212 30.8148L212 38.519L204.296 38.519L204.296 30.8148Z" fill="#000600"/>
<path d="M204.296 38.5192L212 38.5192L212 46.2233L204.296 46.2233L204.296 38.5192Z" fill="#000600"/>
<path d="M204.296 46.2217L212 46.2217L212 53.9258L204.296 53.9258L204.296 46.2217Z" fill="#000600"/>
<path d="M204.296 53.9257L212 53.9257L212 61.6298L204.296 61.6298L204.296 53.9257Z" fill="#000600"/>
<path d="M204.296 61.6295L212 61.6295L212 69.3336L204.296 69.3336L204.296 61.6295Z" fill="#000600"/>
<path d="M204.296 69.3341L212 69.3341L212 77.0383L204.296 77.0383L204.296 69.3341Z" fill="#000600"/>
<path d="M204.296 77.0365L212 77.0365L212 84.7407L204.296 84.7407L204.296 77.0365Z" fill="#000600"/>
<path d="M204.296 84.7404L212 84.7404L212 92.4445L204.296 92.4445L204.296 84.7404Z" fill="#000600"/>
<path d="M204.296 92.4449L212 92.4449L212 100.149L204.296 100.149L204.296 92.4449Z" fill="#000600"/>
<path d="M3.99998 23.1107L11.7041 23.1107L11.7041 30.8148L3.99998 30.8148L3.99998 23.1107Z" fill="#000600"/>
<path d="M11.7021 15.4086L19.4062 15.4086L19.4063 23.1127L11.7021 23.1127L11.7021 15.4086Z" fill="#000600"/>
<path d="M19.4072 7.70398L27.1113 7.70398L27.1113 15.4082L19.4072 15.4082L19.4072 7.70398Z" fill="#000600"/>
<path d="M27.1103 0.000122694L34.8145 0.00012207L34.8145 7.70424L27.1103 7.70424L27.1103 0.000122694Z" fill="#000600"/>
<path d="M34.8154 0.000122694L42.5195 0.00012207L42.5195 7.70424L34.8154 7.70424L34.8154 0.000122694Z" fill="#000600"/>
<path d="M42.5176 0.000122694L50.2217 0.00012207L50.2217 7.70424L42.5176 7.70424L42.5176 0.000122694Z" fill="#000600"/>
<path d="M50.2216 0.000122694L57.9258 0.00012207L57.9258 7.70424L50.2216 7.70424L50.2216 0.000122694Z" fill="#000600"/>
<path d="M57.9258 0.000122694L65.6299 0.00012207L65.6299 7.70424L57.9258 7.70424L57.9258 0.000122694Z" fill="#000600"/>
<path d="M65.6298 0.000122694L73.334 0.00012207L73.334 7.70424L65.6298 7.70424L65.6298 0.000122694Z" fill="#000600"/>
<path d="M73.332 0.000122694L81.0361 0.00012207L81.0361 7.70424L73.332 7.70424L73.332 0.000122694Z" fill="#000600"/>
<path d="M81.0361 0.000122694L88.7402 0.00012207L88.7402 7.70424L81.0361 7.70424L81.0361 0.000122694Z" fill="#000600"/>
<path d="M88.7402 0.000122694L96.4443 0.00012207L96.4443 7.70424L88.7402 7.70424L88.7402 0.000122694Z" fill="#000600"/>
<path d="M96.4433 0.000122694L104.147 0.00012207L104.147 7.70424L96.4433 7.70424L96.4433 0.000122694Z" fill="#000600"/>
<path d="M173.481 0.000122694L181.186 0.00012207L181.186 7.70424L173.481 7.70424L173.481 0.000122694Z" fill="#000600"/>
<path d="M165.777 0.000122694L173.481 0.00012207L173.481 7.70424L165.777 7.70424L165.777 0.000122694Z" fill="#000600"/>
<path d="M158.073 0.000122694L165.777 0.00012207L165.777 7.70424L158.073 7.70424L158.073 0.000122694Z" fill="#000600"/>
<path d="M150.37 0.000122694L158.074 0.00012207L158.074 7.70424L150.37 7.70424L150.37 0.000122694Z" fill="#000600"/>
<path d="M142.666 0.000122694L150.37 0.00012207L150.37 7.70424L142.666 7.70424L142.666 0.000122694Z" fill="#000600"/>
<path d="M134.962 0.000122694L142.666 0.00012207L142.666 7.70424L134.962 7.70424L134.962 0.000122694Z" fill="#000600"/>
<path d="M127.26 0.000122694L134.964 0.00012207L134.964 7.70424L127.26 7.70424L127.26 0.000122694Z" fill="#000600"/>
<path d="M119.556 0.000122694L127.26 0.00012207L127.26 7.70424L119.556 7.70424L119.556 0.000122694Z" fill="#000600"/>
<path d="M111.851 0.000122694L119.556 0.00012207L119.556 7.70424L111.851 7.70424L111.851 0.000122694Z" fill="#000600"/>
<path d="M104.147 0.000122694L111.852 0.00012207L111.852 7.70424L104.147 7.70424L104.147 0.000122694Z" fill="#000600"/>
<path d="M181.186 192.594L188.89 192.594L188.89 200.298L181.186 200.298L181.186 192.594Z" fill="#000600"/>
<path d="M188.888 184.89L196.592 184.89L196.592 192.594L188.888 192.594L188.888 184.89Z" fill="#000600"/>
<path d="M196.592 177.185L204.296 177.185L204.296 184.889L196.592 184.889L196.592 177.185Z" fill="#000600"/>
<path d="M204.296 169.481L212 169.481L212 177.185L204.296 177.185L204.296 169.481Z" fill="#000600"/>
<path d="M204.296 161.777L212 161.777L212 169.481L204.296 169.481L204.296 161.777Z" fill="#000600"/>
<path d="M204.296 154.074L212 154.074L212 161.778L204.296 161.778L204.296 154.074Z" fill="#000600"/>
<path d="M204.296 146.37L212 146.37L212 154.074L204.296 154.074L204.296 146.37Z" fill="#000600"/>
<path d="M204.296 138.666L212 138.666L212 146.37L204.296 146.37L204.296 138.666Z" fill="#000600"/>
<path d="M204.296 130.964L212 130.964L212 138.668L204.296 138.668L204.296 130.964Z" fill="#000600"/>
<path d="M204.296 123.26L212 123.26L212 130.964L204.296 130.964L204.296 123.26Z" fill="#000600"/>
<path d="M204.296 115.555L212 115.555L212 123.259L204.296 123.259L204.296 115.555Z" fill="#000600"/>
<path d="M204.296 107.851L212 107.851L212 115.555L204.296 115.555L204.296 107.851Z" fill="#000600"/>
<path d="M204.296 100.149L212 100.149L212 107.853L204.296 107.853L204.296 100.149Z" fill="#000600"/>
<path d="M27.1103 192.594L34.8145 192.594L34.8145 200.298L27.1103 200.298L27.1103 192.594Z" fill="#000600"/>
<path d="M19.4062 184.89L27.1104 184.89L27.1104 192.594L19.4062 192.594L19.4062 184.89Z" fill="#000600"/>
<path d="M11.7021 177.185L19.4062 177.185L19.4063 184.889L11.7021 184.889L11.7021 177.185Z" fill="#000600"/>
<path d="M3.99998 169.481L11.7041 169.481L11.7041 177.185L3.99998 177.185L3.99998 169.481Z" fill="#000600"/>
<path d="M3.99998 161.777L11.7041 161.777L11.7041 169.481L3.99998 169.481L3.99998 161.777Z" fill="#000600"/>
<path d="M3.99998 154.074L11.7041 154.074L11.7041 161.779L3.99998 161.779L3.99998 154.074Z" fill="#000600"/>
<path d="M3.99998 146.37L11.7041 146.37L11.7041 154.074L3.99998 154.074L3.99998 146.37Z" fill="#000600"/>
<path d="M3.99998 138.666L11.7041 138.666L11.7041 146.37L3.99998 146.37L3.99998 138.666Z" fill="#000600"/>
<path d="M3.99998 130.964L11.7041 130.964L11.7041 138.668L3.99998 138.668L3.99998 130.964Z" fill="#000600"/>
<path d="M3.99998 123.26L11.7041 123.26L11.7041 130.964L3.99998 130.964L3.99998 123.26Z" fill="#000600"/>
<path d="M3.99998 115.555L11.7041 115.555L11.7041 123.259L3.99998 123.259L3.99998 115.555Z" fill="#000600"/>
<path d="M3.99998 107.851L11.7041 107.851L11.7041 115.555L3.99998 115.555L3.99998 107.851Z" fill="#000600"/>
<path d="M3.99998 100.149L11.7041 100.149L11.7041 107.853L3.99998 107.853L3.99998 100.149Z" fill="#000600"/>
<path d="M3.99998 30.8149L11.7041 30.8149L11.7041 38.5191L3.99998 38.5191L3.99998 30.8149Z" fill="#000600"/>
<path d="M3.99998 38.5192L11.7041 38.5192L11.7041 46.2233L3.99998 46.2233L3.99998 38.5192Z" fill="#000600"/>
<path d="M3.99998 46.2218L11.7041 46.2218L11.7041 53.9259L3.99998 53.9259L3.99998 46.2218Z" fill="#000600"/>
<path d="M3.99998 53.9258L11.7041 53.9258L11.7041 61.63L3.99998 61.63L3.99998 53.9258Z" fill="#000600"/>
<path d="M3.99998 61.6298L11.7041 61.6298L11.7041 69.3339L3.99998 69.3339L3.99998 61.6298Z" fill="#000600"/>
<path d="M3.99998 69.3339L11.7041 69.3339L11.7041 77.038L3.99998 77.038L3.99998 69.3339Z" fill="#000600"/>
<path d="M3.99998 77.0367L11.7041 77.0367L11.7041 84.7409L3.99998 84.7409L3.99998 77.0367Z" fill="#000600"/>
<path d="M3.99998 84.7406L11.7041 84.7406L11.7041 92.4447L3.99998 92.4447L3.99998 84.7406Z" fill="#000600"/>
<path d="M3.99998 92.4447L11.7041 92.4447L11.7041 100.149L3.99998 100.149L3.99998 92.4447Z" fill="#000600"/>
<path d="M34.8154 192.594L42.5195 192.594L42.5195 200.298L34.8154 200.298L34.8154 192.594Z" fill="#000600"/>
<path d="M65.6298 192.594L73.334 192.594L73.334 200.298L65.6298 200.298L65.6298 192.594Z" fill="#000600"/>
<path d="M73.3329 192.594L81.0371 192.594L81.0371 200.298L73.3329 200.298L73.3329 192.594Z" fill="#000600"/>
<path d="M81.0371 192.594L88.7412 192.594L88.7412 200.298L81.0371 200.298L81.0371 192.594Z" fill="#000600"/>
<path d="M88.7411 192.594L96.4453 192.594L96.4453 200.298L88.7411 200.298L88.7411 192.594Z" fill="#000600"/>
<path d="M96.4433 192.594L104.147 192.594L104.147 200.298L96.4433 200.298L96.4433 192.594Z" fill="#000600"/>
<path d="M173.481 192.594L181.186 192.594L181.186 200.298L173.481 200.298L173.481 192.594Z" fill="#000600"/>
<path d="M165.777 192.594L173.481 192.594L173.481 200.298L165.777 200.298L165.777 192.594Z" fill="#000600"/>
<path d="M158.073 192.594L165.777 192.594L165.777 200.298L158.073 200.298L158.073 192.594Z" fill="#000600"/>
<path d="M150.371 192.594L158.075 192.594L158.075 200.298L150.371 200.298L150.371 192.594Z" fill="#000600"/>
<path d="M142.667 192.594L150.371 192.594L150.371 200.298L142.667 200.298L142.667 192.594Z" fill="#000600"/>
<path d="M134.963 192.594L142.667 192.594L142.667 200.298L134.963 200.298L134.963 192.594Z" fill="#000600"/>
<path d="M127.26 192.594L134.964 192.594L134.964 200.298L127.26 200.298L127.26 192.594Z" fill="#000600"/>
<path d="M119.556 192.594L127.26 192.594L127.26 200.298L119.556 200.298L119.556 192.594Z" fill="#000600"/>
<path d="M111.851 192.594L119.556 192.594L119.556 200.298L111.851 200.298L111.851 192.594Z" fill="#000600"/>
<path d="M104.147 192.594L111.852 192.594L111.852 200.298L104.147 200.298L104.147 192.594Z" fill="#000600"/>
<path d="M47.6659 19.298H41.499V25.4649H47.6659V19.298Z" fill="#D1D1D1"/>
<path d="M41.5009 25.465H35.334V31.6319H41.5009V25.465Z" fill="#D1D1D1"/>
<path d="M47.6659 25.465H41.499V31.6319H47.6659V25.465Z" fill="#D1D1D1"/>
<path d="M41.5009 31.632H35.334V37.7989H41.5009V31.632Z" fill="#D1D1D1"/>
<path d="M35.3339 37.7975H29.167V43.9644H35.3339V37.7975Z" fill="#D1D1D1"/>
<path d="M35.3339 31.632H29.167V37.7989H35.3339V31.632Z" fill="#D1D1D1"/>
<path d="M29.1669 37.7975H23V43.9644H29.1669V37.7975Z" fill="#D1D1D1"/>
<path d="M29.1669 43.9642H23V50.1311H29.1669V43.9642Z" fill="#D1D1D1"/>
<path d="M29.1669 50.131H23V56.2979H29.1669V50.131Z" fill="#D1D1D1"/>
<path d="M53.833 19.298H47.666V25.4649H53.833V19.298Z" fill="#D1D1D1"/>
<path d="M60 19.298H53.833V25.4649H60V19.298Z" fill="#D1D1D1"/>
<path d="M132.17 119.941H126.051V126.06H132.17V119.941Z" fill="#C2C2D1"/>
<path d="M125.898 120.017H119.932V126.136H125.898V120.017Z" fill="#BA6156"/>
<path d="M119.932 126.136H113.966V132.102H119.932V126.136Z" fill="#BA6156"/>
<path d="M95.915 150V155.966H102.111H108V150H102.111H95.915Z" fill="#BA6156"/>
<path d="M95.9152 137.992V132.026V126.136H89.9492V132.026V137.992V143.958V150H95.9152V143.958V137.992Z" fill="#BA6156"/>
<path d="M84.0591 120.017H78.0931H71.9741H65.9316V126.136H71.9741H78.0931H84.0591H89.9486V120.017H84.0591Z" fill="#BA6156"/>
<path d="M71.8976 48.1193H65.9316V54.0853H71.8976V48.1193Z" fill="#BA6156"/>
<path d="M65.9318 108.085H71.9743H78.0933H84.0593H89.9488V101.966H84.0593H78.0933H71.9743H65.9318V95.9236V90.0341H71.9743H78.0933H84.0593H89.9488V84.0681H84.0593H78.0933H71.9743H65.9318V78.0256V72.1361H71.9743H78.0933H84.0593H89.9488V66.1701H84.0593H78.0933H71.9743H65.9318V59.9746V54.0851H59.9658V59.9746V66.0936V72.0596V78.0256V83.9916V89.9576V95.9236V101.89V108.009V113.975V120.017H65.9318V113.975V108.085Z" fill="#BA6156"/>
<path d="M120.008 48.1193H114.042H108.076H102.11H95.9911H90.0251H84.0591H78.0931H71.8976V54.0853H65.9316V59.9748V66.1703H71.9741H78.0931H84.0591H89.9486V72.1363H84.0591H78.0931H71.9741H65.9316V78.0258V84.0683H71.9741H78.0931H84.0591H89.9486V90.0343H84.0591H78.0931H71.9741H65.9316V95.9238V101.966H71.9741H78.0931H84.0591H89.9486V108.085H84.0591H78.0931H71.9741H65.9316V113.975V120.017H71.9741H78.0931H84.0591H89.9486V126.136H95.9146V132.026V137.992V143.958V150H102.11H108.076H113.966V143.958V137.992V132.026V126.136H119.932V120.017H125.898V113.975V108.009V101.89V95.9238V89.9578V83.9918V78.0258V72.0598V66.0938V59.9748V54.0088V48.1193H120.008Z" fill="#F7C8A1"/>
<path d="M149.991 120.017H144.025H138.059H132.017V126.136H138.059H144.025H149.991H156.034V120.017H149.991Z" fill="#4B5BAB"/>
<path d="M149.991 60.0513H144.025H138.059H132.017V66.0938V72.0598V78.0258V83.9918V89.9578V95.9238V101.89V108.009V113.975V120.017H138.059H144.025H149.991H156.034V113.975V108.009V101.89V95.9238V89.9578V83.9918V78.0258V72.0598V66.0938V60.0513H149.991Z" fill="#4DA6FF"/>
<path d="M144.025 126.136H138.059H132.093H125.974H119.932V132.102H125.974H132.093H138.059H144.025H149.991H156.034V126.136H149.991H144.025Z" fill="#272736"/>
<path d="M138.059 60.0511H144.025H149.991H156.034V66.0936V72.0596V78.0256V83.9916V89.9576V95.9236V101.89V108.009V113.975V119.941V126.136H162V119.941V113.975V108.009V101.89V95.9236V89.9576V83.9916V78.0256V72.0596V66.0936V59.9746V54.0851H156.11H149.991H144.025H138.059H132.017V60.0511H138.059Z" fill="#272736"/>
<path d="M132.017 48.1193H125.898V54.0853H132.017V48.1193Z" fill="#272736"/>
<path d="M113.966 137.992V143.958V150H119.932V143.958V137.992V132.102H113.966V137.992Z" fill="#272736"/>
<path d="M113.966 150H108V155.966H113.966V150Z" fill="#272736"/>
<path d="M95.915 155.966V162.085H102.111H108V155.966H102.111H95.915Z" fill="#272736"/>
<path d="M95.9152 150H89.9492V155.966H95.9152V150Z" fill="#272736"/>
<path d="M89.9486 137.992V132.026V126.136H84.0591H78.0931H71.9741H65.9316V132.102H71.9741H78.0931H83.9826V137.992V143.958V150H89.9486V143.958V137.992Z" fill="#272736"/>
<path d="M78.0931 48.1191H84.0591H90.0251H95.9911H102.11H108.076H114.042H120.008H125.898V42.0001H120.008H114.042H108.076H102.11H95.9911H90.0251H84.0591H78.0931H71.9741H65.9316V48.1191H71.9741H78.0931Z" fill="#272736"/>
<path d="M65.9318 120.017H59.9658V126.136H65.9318V120.017Z" fill="#272736"/>
<path d="M65.9318 48.1193H59.9658V54.0853H65.9318V48.1193Z" fill="#272736"/>
<path d="M59.966 113.975V108.009V101.89V95.9236V89.9576V83.9916V78.0256V72.0596V66.0936V59.9746V54.0851H54V59.9746V66.0936V72.0596V78.0256V83.9916V89.9576V95.9236V101.89V108.009V113.975V120.017H59.966V113.975Z" fill="#272736"/>
<path d="M125.898 59.9746V66.0936V72.0596V78.0256V83.9916V89.9576V95.9236V101.89V108.009V113.975V120.017H132.017V113.975V108.009V101.89V95.9236V89.9576V83.9916V78.0256V72.0596V66.0936V59.9746V54.0851H125.898V59.9746Z" fill="#FFFFEB"/>
</g>
<defs>
<filter id="filter0_d_44_5019" x="0" y="0.00012207" width="216" height="214.298" filterUnits="userSpaceOnUse" color-interpolation-filters="sRGB">
<feFlood flood-opacity="0" result="BackgroundImageFix"/>
<feColorMatrix in="SourceAlpha" type="matrix" values="0 0 0 0 0 0 0 0 0 0 0 0 0 0 0 0 0 0 127 0" result="hardAlpha"/>
<feOffset dy="10"/>
<feGaussianBlur stdDeviation="2"/>
<feComposite in2="hardAlpha" operator="out"/>
<feColorMatrix type="matrix" values="0 0 0 0 0 0 0 0 0 0 0 0 0 0 0 0 0 0 0.25 0"/>
<feBlend mode="normal" in2="BackgroundImageFix" result="effect1_dropShadow_44_5019"/>
<feBlend mode="normal" in="SourceGraphic" in2="effect1_dropShadow_44_5019" result="shape"/>
</filter>
</defs>
</svg>
