<svg width="216" height="215" viewBox="0 0 216 215" fill="none" xmlns="http://www.w3.org/2000/svg">
<g filter="url(#filter0_d_47_5036)">
<path fill-rule="evenodd" clip-rule="evenodd" d="M27.1107 183.594V191.298H188.889V183.594H196.593V175.891H204.296V21.817H196.593V14.1128H188.889V6.40868H173.481H150.37H27.1107V14.1128H19.4083V21.817H11.7041V175.891H19.4083V183.594H27.1107Z" fill="#347FF5"/>
<path d="M181.186 184.888L188.89 184.888L188.89 192.592L181.186 192.592L181.186 184.888Z" fill="#0041A9"/>
<path d="M188.888 177.184L196.592 177.184L196.592 184.888L188.888 184.888L188.888 177.184Z" fill="#0041A9"/>
<path d="M196.592 169.48L204.296 169.48L204.296 177.184L196.592 177.184L196.592 169.48Z" fill="#0041A9"/>
<path d="M34.8154 184.888L42.5195 184.888L42.5195 192.592L34.8154 192.592L34.8154 184.888Z" fill="#0041A9"/>
<path d="M27.1113 184.888L34.8154 184.888L34.8154 192.592L27.1113 192.592L27.1113 184.888Z" fill="#0041A9"/>
<path d="M19.4072 177.184L27.1113 177.184L27.1113 184.888L19.4072 184.888L19.4072 177.184Z" fill="#0041A9"/>
<path d="M11.7031 169.48L19.4072 169.48L19.4072 177.184L11.7031 177.184L11.7031 169.48Z" fill="#0041A9"/>
<path d="M65.6308 184.888L73.335 184.888L73.335 192.592L65.6308 192.592L65.6308 184.888Z" fill="#0041A9"/>
<path d="M58.2958 184.888L66 184.888L66 192.592L58.2958 192.592L58.2958 184.888Z" fill="#0041A9"/>
<path d="M50.9618 184.888L58.666 184.888L58.666 192.592L50.9618 192.592L50.9618 184.888Z" fill="#0041A9"/>
<path d="M43.6279 184.888L51.332 184.888L51.332 192.592L43.6279 192.592L43.6279 184.888Z" fill="#0041A9"/>
<path d="M36.2939 184.888L43.998 184.888L43.998 192.592L36.2939 192.592L36.2939 184.888Z" fill="#0041A9"/>
<path d="M57.9258 192.592L65.6299 192.592L65.6299 200.296L57.9258 200.296L57.9258 192.592Z" fill="white"/>
<path d="M42.5176 192.592L51 192.592L51 200.296L42.5176 200.296L42.5176 192.592Z" fill="white"/>
<path d="M50.2959 192.592L58 192.592L58 200.296L50.2959 200.296L50.2959 192.592Z" fill="white"/>
<path d="M73.3329 184.888L81.0371 184.888L81.0371 192.592L73.3329 192.592L73.3329 184.888Z" fill="#0041A9"/>
<path d="M81.0371 184.888L88.7412 184.888L88.7412 192.592L81.0371 192.592L81.0371 184.888Z" fill="#0041A9"/>
<path d="M88.7411 184.888L96.4453 184.888L96.4453 192.592L88.7411 192.592L88.7411 184.888Z" fill="#0041A9"/>
<path d="M96.4433 184.888L104.147 184.888L104.147 192.592L96.4433 192.592L96.4433 184.888Z" fill="#0041A9"/>
<path d="M173.481 184.888L181.186 184.888L181.186 192.592L173.481 192.592L173.481 184.888Z" fill="#0041A9"/>
<path d="M165.777 184.888L173.481 184.888L173.481 192.592L165.777 192.592L165.777 184.888Z" fill="#0041A9"/>
<path d="M158.073 184.888L165.777 184.888L165.777 192.592L158.073 192.592L158.073 184.888Z" fill="#0041A9"/>
<path d="M150.371 184.888L158.075 184.888L158.075 192.592L150.371 192.592L150.371 184.888Z" fill="#0041A9"/>
<path d="M142.667 184.888L150.371 184.888L150.371 192.592L142.667 192.592L142.667 184.888Z" fill="#0041A9"/>
<path d="M134.963 184.888L142.667 184.888L142.667 192.592L134.963 192.592L134.963 184.888Z" fill="#0041A9"/>
<path d="M127.26 184.888L134.964 184.888L134.964 192.592L127.26 192.592L127.26 184.888Z" fill="#0041A9"/>
<path d="M119.556 184.888L127.26 184.888L127.26 192.592L119.556 192.592L119.556 184.888Z" fill="#0041A9"/>
<path d="M111.851 184.888L119.556 184.888L119.556 192.592L111.851 192.592L111.851 184.888Z" fill="#0041A9"/>
<path d="M104.147 184.888L111.852 184.888L111.852 192.592L104.147 192.592L104.147 184.888Z" fill="#0041A9"/>
<path d="M181.186 6.23446e-07L188.89 0L188.89 7.70412L181.186 7.70412L181.186 6.23446e-07Z" fill="white"/>
<path d="M188.888 7.70386L196.592 7.70386L196.592 15.408L188.888 15.408L188.888 7.70386Z" fill="white"/>
<path d="M196.592 15.4084L204.296 15.4084L204.296 23.1126L196.592 23.1126L196.592 15.4084Z" fill="white"/>
<path d="M204.296 23.1106L212 23.1106L212 30.8147L204.296 30.8147L204.296 23.1106Z" fill="white"/>
<path d="M204.296 30.8147L212 30.8147L212 38.5189L204.296 38.5189L204.296 30.8147Z" fill="white"/>
<path d="M204.296 38.519L212 38.519L212 46.2232L204.296 46.2232L204.296 38.519Z" fill="white"/>
<path d="M204.296 46.2214L212 46.2214L212 53.9256L204.296 53.9256L204.296 46.2214Z" fill="white"/>
<path d="M204.296 53.9255L212 53.9255L212 61.6297L204.296 61.6297L204.296 53.9255Z" fill="white"/>
<path d="M204.296 61.6294L212 61.6294L212 69.3335L204.296 69.3335L204.296 61.6294Z" fill="white"/>
<path d="M204.296 69.334L212 69.334L212 77.0382L204.296 77.0382L204.296 69.334Z" fill="white"/>
<path d="M204.296 77.0364L212 77.0364L212 84.7406L204.296 84.7406L204.296 77.0364Z" fill="white"/>
<path d="M204.296 84.7402L212 84.7402L212 92.4444L204.296 92.4444L204.296 84.7402Z" fill="white"/>
<path d="M204.296 92.4448L212 92.4448L212 100.149L204.296 100.149L204.296 92.4448Z" fill="white"/>
<path d="M3.99998 23.1106L11.7041 23.1106L11.7041 30.8147L3.99998 30.8147L3.99998 23.1106Z" fill="white"/>
<path d="M11.7021 15.4084L19.4062 15.4084L19.4063 23.1126L11.7021 23.1126L11.7021 15.4084Z" fill="white"/>
<path d="M19.4072 7.70386L27.1113 7.70386L27.1113 15.408L19.4072 15.408L19.4072 7.70386Z" fill="white"/>
<path d="M27.1103 6.2345e-07L34.8145 0L34.8145 7.70412L27.1103 7.70412L27.1103 6.2345e-07Z" fill="white"/>
<path d="M34.8154 6.23446e-07L42.5195 0L42.5195 7.70412L34.8154 7.70412L34.8154 6.23446e-07Z" fill="white"/>
<path d="M42.5176 6.23446e-07L50.2217 0L50.2217 7.70412L42.5176 7.70412L42.5176 6.23446e-07Z" fill="white"/>
<path d="M50.2216 6.2345e-07L57.9258 0L57.9258 7.70412L50.2216 7.70412L50.2216 6.2345e-07Z" fill="white"/>
<path d="M57.9258 6.23446e-07L65.6299 0L65.6299 7.70412L57.9258 7.70412L57.9258 6.23446e-07Z" fill="white"/>
<path d="M65.6298 6.2345e-07L73.334 0L73.334 7.70412L65.6298 7.70412L65.6298 6.2345e-07Z" fill="white"/>
<path d="M73.332 6.2345e-07L81.0361 0L81.0361 7.70412L73.332 7.70412L73.332 6.2345e-07Z" fill="white"/>
<path d="M81.0361 6.23446e-07L88.7402 0L88.7402 7.70412L81.0361 7.70412L81.0361 6.23446e-07Z" fill="white"/>
<path d="M88.7402 6.2345e-07L96.4443 0L96.4443 7.70412L88.7402 7.70412L88.7402 6.2345e-07Z" fill="white"/>
<path d="M96.4433 6.2345e-07L104.147 0L104.147 7.70412L96.4433 7.70412L96.4433 6.2345e-07Z" fill="white"/>
<path d="M173.481 6.2345e-07L181.186 0L181.186 7.70412L173.481 7.70412L173.481 6.2345e-07Z" fill="white"/>
<path d="M165.777 6.23446e-07L173.481 0L173.481 7.70412L165.777 7.70412L165.777 6.23446e-07Z" fill="white"/>
<path d="M158.073 6.2345e-07L165.777 0L165.777 7.70412L158.073 7.70412L158.073 6.2345e-07Z" fill="white"/>
<path d="M150.37 6.2345e-07L158.074 0L158.074 7.70412L150.37 7.70412L150.37 6.2345e-07Z" fill="white"/>
<path d="M142.666 6.23446e-07L150.37 0L150.37 7.70412L142.666 7.70412L142.666 6.23446e-07Z" fill="white"/>
<path d="M134.962 6.2345e-07L142.666 0L142.666 7.70412L134.962 7.70412L134.962 6.2345e-07Z" fill="white"/>
<path d="M127.26 6.2345e-07L134.964 0L134.964 7.70412L127.26 7.70412L127.26 6.2345e-07Z" fill="white"/>
<path d="M119.556 6.23446e-07L127.26 0L127.26 7.70412L119.556 7.70412L119.556 6.23446e-07Z" fill="white"/>
<path d="M111.851 6.2345e-07L119.556 0L119.556 7.70412L111.851 7.70412L111.851 6.2345e-07Z" fill="white"/>
<path d="M104.147 6.23446e-07L111.852 0L111.852 7.70412L104.147 7.70412L104.147 6.23446e-07Z" fill="white"/>
<path d="M181.186 192.594L188.89 192.594L188.89 200.298L181.186 200.298L181.186 192.594Z" fill="white"/>
<path d="M188.888 184.889L196.592 184.889L196.592 192.594L188.888 192.594L188.888 184.889Z" fill="white"/>
<path d="M196.592 177.185L204.296 177.185L204.296 184.889L196.592 184.889L196.592 177.185Z" fill="white"/>
<path d="M204.296 169.48L212 169.48L212 177.185L204.296 177.185L204.296 169.48Z" fill="white"/>
<path d="M204.296 161.777L212 161.777L212 169.481L204.296 169.481L204.296 161.777Z" fill="white"/>
<path d="M204.296 154.074L212 154.074L212 161.778L204.296 161.778L204.296 154.074Z" fill="white"/>
<path d="M204.296 146.37L212 146.37L212 154.074L204.296 154.074L204.296 146.37Z" fill="white"/>
<path d="M204.296 138.666L212 138.666L212 146.37L204.296 146.37L204.296 138.666Z" fill="white"/>
<path d="M204.296 130.963L212 130.963L212 138.668L204.296 138.668L204.296 130.963Z" fill="white"/>
<path d="M204.296 123.26L212 123.26L212 130.964L204.296 130.964L204.296 123.26Z" fill="white"/>
<path d="M204.296 115.555L212 115.555L212 123.259L204.296 123.259L204.296 115.555Z" fill="white"/>
<path d="M204.296 107.851L212 107.851L212 115.555L204.296 115.555L204.296 107.851Z" fill="white"/>
<path d="M204.296 100.149L212 100.149L212 107.853L204.296 107.853L204.296 100.149Z" fill="white"/>
<path d="M27.1103 192.594L34.8145 192.594L34.8145 200.298L27.1103 200.298L27.1103 192.594Z" fill="white"/>
<path d="M19.4062 184.89L27.1104 184.89L27.1104 192.594L19.4062 192.594L19.4062 184.89Z" fill="white"/>
<path d="M11.7021 177.185L19.4062 177.185L19.4063 184.889L11.7021 184.889L11.7021 177.185Z" fill="white"/>
<path d="M3.99998 169.481L11.7041 169.481L11.7041 177.185L3.99998 177.185L3.99998 169.481Z" fill="white"/>
<path d="M3.99998 161.777L11.7041 161.777L11.7041 169.481L3.99998 169.481L3.99998 161.777Z" fill="white"/>
<path d="M3.99998 154.074L11.7041 154.074L11.7041 161.778L3.99998 161.778L3.99998 154.074Z" fill="white"/>
<path d="M3.99998 146.37L11.7041 146.37L11.7041 154.074L3.99998 154.074L3.99998 146.37Z" fill="white"/>
<path d="M3.99998 138.666L11.7041 138.666L11.7041 146.37L3.99998 146.37L3.99998 138.666Z" fill="white"/>
<path d="M3.99998 130.963L11.7041 130.963L11.7041 138.668L3.99998 138.668L3.99998 130.963Z" fill="white"/>
<path d="M3.99998 123.26L11.7041 123.26L11.7041 130.964L3.99998 130.964L3.99998 123.26Z" fill="white"/>
<path d="M3.99998 115.555L11.7041 115.555L11.7041 123.259L3.99998 123.259L3.99998 115.555Z" fill="white"/>
<path d="M3.99998 107.851L11.7041 107.851L11.7041 115.555L3.99998 115.555L3.99998 107.851Z" fill="white"/>
<path d="M3.99998 100.149L11.7041 100.149L11.7041 107.853L3.99998 107.853L3.99998 100.149Z" fill="white"/>
<path d="M3.99998 30.8147L11.7041 30.8147L11.7041 38.5189L3.99998 38.5189L3.99998 30.8147Z" fill="white"/>
<path d="M3.99998 38.519L11.7041 38.519L11.7041 46.2232L3.99998 46.2232L3.99998 38.519Z" fill="white"/>
<path d="M3.99998 46.2217L11.7041 46.2217L11.7041 53.9258L3.99998 53.9258L3.99998 46.2217Z" fill="white"/>
<path d="M3.99998 53.9255L11.7041 53.9255L11.7041 61.6297L3.99998 61.6297L3.99998 53.9255Z" fill="white"/>
<path d="M3.99998 61.6294L11.7041 61.6294L11.7041 69.3335L3.99998 69.3335L3.99998 61.6294Z" fill="white"/>
<path d="M3.99998 69.3335L11.7041 69.3335L11.7041 77.0377L3.99998 77.0377L3.99998 69.3335Z" fill="white"/>
<path d="M3.99998 77.0364L11.7041 77.0364L11.7041 84.7406L3.99998 84.7406L3.99998 77.0364Z" fill="white"/>
<path d="M3.99998 84.7402L11.7041 84.7402L11.7041 92.4444L3.99998 92.4444L3.99998 84.7402Z" fill="white"/>
<path d="M3.99998 92.4443L11.7041 92.4443L11.7041 100.149L3.99998 100.149L3.99998 92.4443Z" fill="white"/>
<path d="M34.8154 192.594L42.5195 192.594L42.5195 200.298L34.8154 200.298L34.8154 192.594Z" fill="white"/>
<path d="M65.6298 192.594L73.334 192.594L73.334 200.298L65.6298 200.298L65.6298 192.594Z" fill="white"/>
<path d="M73.3329 192.594L81.0371 192.594L81.0371 200.298L73.3329 200.298L73.3329 192.594Z" fill="white"/>
<path d="M81.0371 192.594L88.7412 192.594L88.7412 200.298L81.0371 200.298L81.0371 192.594Z" fill="white"/>
<path d="M88.7411 192.594L96.4453 192.594L96.4453 200.298L88.7411 200.298L88.7411 192.594Z" fill="white"/>
<path d="M96.4433 192.594L104.147 192.594L104.147 200.298L96.4433 200.298L96.4433 192.594Z" fill="white"/>
<path d="M173.481 192.594L181.186 192.594L181.186 200.298L173.481 200.298L173.481 192.594Z" fill="white"/>
<path d="M165.777 192.594L173.481 192.594L173.481 200.298L165.777 200.298L165.777 192.594Z" fill="white"/>
<path d="M158.073 192.594L165.777 192.594L165.777 200.298L158.073 200.298L158.073 192.594Z" fill="white"/>
<path d="M150.371 192.594L158.075 192.594L158.075 200.298L150.371 200.298L150.371 192.594Z" fill="white"/>
<path d="M142.667 192.594L150.371 192.594L150.371 200.298L142.667 200.298L142.667 192.594Z" fill="white"/>
<path d="M134.963 192.594L142.667 192.594L142.667 200.298L134.963 200.298L134.963 192.594Z" fill="white"/>
<path d="M127.26 192.594L134.964 192.594L134.964 200.298L127.26 200.298L127.26 192.594Z" fill="white"/>
<path d="M119.556 192.594L127.26 192.594L127.26 200.298L119.556 200.298L119.556 192.594Z" fill="white"/>
<path d="M111.851 192.594L119.556 192.594L119.556 200.298L111.851 200.298L111.851 192.594Z" fill="white"/>
<path d="M104.147 192.594L111.852 192.594L111.852 200.298L104.147 200.298L104.147 192.594Z" fill="white"/>
<path d="M47.6659 19.2979H41.499V25.4648H47.6659V19.2979Z" fill="#0041A9"/>
<path d="M41.5009 25.4648H35.334V31.6317H41.5009V25.4648Z" fill="#0041A9"/>
<path d="M47.6659 25.4648H41.499V31.6317H47.6659V25.4648Z" fill="#0041A9"/>
<path d="M41.5009 31.6318H35.334V37.7988H41.5009V31.6318Z" fill="#0041A9"/>
<path d="M35.3339 37.7974H29.167V43.9643H35.3339V37.7974Z" fill="#0041A9"/>
<path d="M35.3339 31.6318H29.167V37.7988H35.3339V31.6318Z" fill="#0041A9"/>
<path d="M29.1669 37.7974H23V43.9643H29.1669V37.7974Z" fill="#0041A9"/>
<path d="M29.1669 43.9641H23V50.131H29.1669V43.9641Z" fill="#0041A9"/>
<path d="M29.1669 50.1309H23V56.2978H29.1669V50.1309Z" fill="#0041A9"/>
<path d="M53.833 19.2979H47.666V25.4648H53.833V19.2979Z" fill="#0041A9"/>
<path d="M60 19.2979H53.833V25.4648H60V19.2979Z" fill="#0041A9"/>
<path d="M132.059 65.5928H126.093H119.974H113.932V71.8791H119.974H126.093H132.059H138.025H144.068V65.5928H138.025H132.059Z" fill="#BA6156"/>
<path d="M119.974 128.778H126.093H132.059H138.025H144.068V122.331H138.025H132.059H126.093H119.974H113.932V128.778H119.974Z" fill="#BA6156"/>
<path d="M119.974 109.758H126.093H132.059H138.025H144.068V103.471H138.025H132.059H126.093H119.974H113.932V109.758H119.974Z" fill="#BA6156"/>
<path d="M119.974 90.8989H126.093H132.059H138.025H144.068V84.6125H138.025H132.059H126.093H119.974H113.932V90.8989H119.974Z" fill="#BA6156"/>
<path d="M107.966 134.984V141.35H102.077H96.1109H90.1449H84.1789H77.9834V147.798H84.1789H90.1449H96.1109H102.077H108.043H114.009H119.975H126.094H132.06H138.026H144.068V141.35H138.026H132.06H126.094H119.975H113.932V134.984V128.778H107.966V134.984Z" fill="#BA6156"/>
<path d="M107.966 115.964V122.33H113.932V115.964V109.758H107.966V115.964Z" fill="#BA6156"/>
<path d="M107.966 97.1046V103.472H113.932V97.1046V90.8989H107.966V97.1046Z" fill="#BA6156"/>
<path d="M107.966 78.0846V84.6127H113.932V78.0846V71.8789H107.966V78.0846Z" fill="#BA6156"/>
<path d="M138.025 71.8789H132.059H126.093H119.974H113.932V78.0846V84.6127H119.974H126.093H132.059H138.025H144.068V90.899H138.025H132.059H126.093H119.974H113.932V97.1047V103.472H119.974H126.093H132.059H138.025H144.068V109.758H138.025H132.059H126.093H119.974H113.932V115.964V122.331H119.974H126.093H132.059H138.025H144.068V128.778H138.025H132.059H126.093H119.974H113.932V134.984V141.351H119.974H126.093H132.059H138.025H144.144H150.034V134.984V128.697V122.25V115.964V109.677V103.391V97.1047V90.8184V84.5321V78.0846V71.8789H144.144H138.025Z" fill="#F7C8A1"/>
<path d="M107.966 122.33V115.964V109.758H113.932V103.472H107.966V97.1046V90.8989H113.932V84.6126H107.966V78.0845V71.8788H113.932V65.5119V59.0644V52.7781V46.5724H107.966V40.2861H102.077H96.0344V46.5724H90.0684V52.7781V59.0644V65.5119V71.8788H84.1024V78.1651H77.9834V84.532V90.8183V97.1046V103.391V109.677V115.964V122.25V128.697V134.984V141.351H84.1789H90.1449H96.1109H102.077H107.966V134.984V128.778H113.932V122.33H107.966Z" fill="#F7C8A1"/>
<path d="M78.1359 141.27H72.1699V147.718H78.1359V141.27Z" fill="#347FF5"/>
<path d="M60.0083 141.35H53.9658V147.798H60.0083H66.1273H72.0168V141.35H66.1273H60.0083Z" fill="#4B5BAB"/>
<path d="M60.0083 78.1653H53.9658V84.5322V90.8185V97.1048V103.391V109.677V115.964V122.25V128.697V134.984V141.351H60.0083H66.1273H72.0168V134.984V128.697V122.25V115.964V109.677V103.391V97.1048V90.8185V84.5322V78.1653H66.1273H60.0083Z" fill="#4DA6FF"/>
<path d="M150.034 78.0846V84.5321V90.8184V97.1047V103.391V109.677V115.964V122.25V128.697V134.984V141.351H156V134.984V128.697V122.25V115.964V109.677V103.391V97.1047V90.8184V84.5321V78.0846V71.8789H150.034V78.0846Z" fill="#0041A9"/>
<path d="M150.034 141.35H144.068V147.798H150.034V141.35Z" fill="#0041A9"/>
<path d="M150.034 65.5928H144.068V71.8791H150.034V65.5928Z" fill="#0041A9"/>
<path d="M132.059 147.798H126.093H119.974H114.008H108.042H102.076H96.1103H90.1443H84.1783H78.0593H72.0933H66.1273H60.0083H53.9658V154.085H60.0083H66.1273H72.0933H78.0593H84.1783H90.1443H96.1103H102.076H108.042H114.008H119.974H126.093H132.059H138.025H144.068V147.798H138.025H132.059Z" fill="#0041A9"/>
<path d="M113.932 59.0645V65.5926H119.974H126.093H132.059H138.025H144.068V59.1451H138.025H132.059H126.093H119.898V52.7782V46.5725H113.932V52.7782V59.0645Z" fill="#0041A9"/>
<path d="M113.932 40.2861H107.966V46.5724H113.932V40.2861Z" fill="#0041A9"/>
<path d="M107.966 40.2863V34H102.077H96.0342V40.2863H102.077H107.966Z" fill="#0041A9"/>
<path d="M96.0344 40.2861H90.0684V46.5724H96.0344V40.2861Z" fill="#0041A9"/>
<path d="M90.0676 65.512V59.0645V52.7782V46.5725H84.1016V52.7782V59.0645V65.512V71.8789H90.0676V65.512Z" fill="#0041A9"/>
<path d="M66.1273 78.1652H72.0933H78.0593H84.1018V71.8789H78.0593H72.0933H66.1273H60.0083H53.9658V78.1652H60.0083H66.1273Z" fill="#0041A9"/>
<path d="M53.966 134.984V128.697V122.25V115.964V109.677V103.391V97.1048V90.8185V84.5322V78.1653H48V84.5322V90.8185V97.1048V103.391V109.677V115.964V122.25V128.697V134.984V141.27V147.798H53.966V141.27V134.984Z" fill="#0041A9"/>
<path d="M77.9826 134.984V128.697V122.25V115.964V109.677V103.391V97.1048V90.8185V84.5322V78.1653H72.0166V84.5322V90.8185V97.1048V103.391V109.677V115.964V122.25V128.697V134.984V141.351H77.9826V134.984Z" fill="#FFFFEB"/>
</g>
<defs>
<filter id="filter0_d_47_5036" x="0" y="0" width="216" height="214.298" filterUnits="userSpaceOnUse" color-interpolation-filters="sRGB">
<feFlood flood-opacity="0" result="BackgroundImageFix"/>
<feColorMatrix in="SourceAlpha" type="matrix" values="0 0 0 0 0 0 0 0 0 0 0 0 0 0 0 0 0 0 127 0" result="hardAlpha"/>
<feOffset dy="10"/>
<feGaussianBlur stdDeviation="2"/>
<feComposite in2="hardAlpha" operator="out"/>
<feColorMatrix type="matrix" values="0 0 0 0 0 0 0 0 0 0 0 0 0 0 0 0 0 0 0.25 0"/>
<feBlend mode="normal" in2="BackgroundImageFix" result="effect1_dropShadow_47_5036"/>
<feBlend mode="normal" in="SourceGraphic" in2="effect1_dropShadow_47_5036" result="shape"/>
</filter>
</defs>
</svg>
