<svg width="216" height="215" viewBox="0 0 216 215" fill="none" xmlns="http://www.w3.org/2000/svg">
<g filter="url(#filter0_d_47_5329)">
<path fill-rule="evenodd" clip-rule="evenodd" d="M27.1107 183.594V191.298H188.889V183.594H196.593V175.892H204.296V21.8172H196.593V14.113H188.889V6.40892H173.481H150.37H27.1107V14.113H19.4083V21.8172H11.7041V175.892H19.4083V183.594H27.1107Z" fill="#347FF5"/>
<path d="M181.186 184.888L188.89 184.888L188.89 192.592L181.186 192.592L181.186 184.888Z" fill="#0041A9"/>
<path d="M188.888 177.184L196.592 177.184L196.592 184.889L188.888 184.889L188.888 177.184Z" fill="#0041A9"/>
<path d="M196.592 169.48L204.296 169.48L204.296 177.184L196.592 177.184L196.592 169.48Z" fill="#0041A9"/>
<path d="M34.8154 184.888L42.5195 184.888L42.5195 192.592L34.8154 192.592L34.8154 184.888Z" fill="#0041A9"/>
<path d="M27.1113 184.888L34.8154 184.888L34.8154 192.592L27.1113 192.592L27.1113 184.888Z" fill="#0041A9"/>
<path d="M19.4072 177.184L27.1113 177.184L27.1113 184.888L19.4072 184.888L19.4072 177.184Z" fill="#0041A9"/>
<path d="M11.7031 169.48L19.4072 169.48L19.4072 177.184L11.7031 177.184L11.7031 169.48Z" fill="#0041A9"/>
<path d="M65.6308 184.888L73.335 184.888L73.335 192.592L65.6308 192.592L65.6308 184.888Z" fill="#0041A9"/>
<path d="M58.2958 184.888L66 184.888L66 192.592L58.2958 192.592L58.2958 184.888Z" fill="#0041A9"/>
<path d="M50.9618 184.888L58.666 184.888L58.666 192.592L50.9618 192.592L50.9618 184.888Z" fill="#0041A9"/>
<path d="M43.6279 184.888L51.332 184.888L51.332 192.592L43.6279 192.592L43.6279 184.888Z" fill="#0041A9"/>
<path d="M36.2939 184.888L43.998 184.888L43.998 192.592L36.2939 192.592L36.2939 184.888Z" fill="#0041A9"/>
<path d="M57.9258 192.592L65.6299 192.592L65.6299 200.296L57.9258 200.296L57.9258 192.592Z" fill="white"/>
<path d="M42.5176 192.592L51 192.592L51 200.296L42.5176 200.296L42.5176 192.592Z" fill="white"/>
<path d="M50.2959 192.592L58 192.592L58 200.296L50.2959 200.296L50.2959 192.592Z" fill="white"/>
<path d="M73.3329 184.888L81.0371 184.888L81.0371 192.592L73.3329 192.592L73.3329 184.888Z" fill="#0041A9"/>
<path d="M81.0371 184.888L88.7412 184.888L88.7412 192.592L81.0371 192.592L81.0371 184.888Z" fill="#0041A9"/>
<path d="M88.7411 184.888L96.4453 184.888L96.4453 192.592L88.7411 192.592L88.7411 184.888Z" fill="#0041A9"/>
<path d="M96.4433 184.888L104.147 184.888L104.147 192.592L96.4433 192.592L96.4433 184.888Z" fill="#0041A9"/>
<path d="M173.481 184.888L181.186 184.888L181.186 192.592L173.481 192.592L173.481 184.888Z" fill="#0041A9"/>
<path d="M165.777 184.888L173.481 184.888L173.481 192.592L165.777 192.592L165.777 184.888Z" fill="#0041A9"/>
<path d="M158.073 184.888L165.777 184.888L165.777 192.592L158.073 192.592L158.073 184.888Z" fill="#0041A9"/>
<path d="M150.371 184.888L158.075 184.888L158.075 192.592L150.371 192.592L150.371 184.888Z" fill="#0041A9"/>
<path d="M142.667 184.888L150.371 184.888L150.371 192.592L142.667 192.592L142.667 184.888Z" fill="#0041A9"/>
<path d="M134.963 184.888L142.667 184.888L142.667 192.592L134.963 192.592L134.963 184.888Z" fill="#0041A9"/>
<path d="M127.26 184.888L134.964 184.888L134.964 192.592L127.26 192.592L127.26 184.888Z" fill="#0041A9"/>
<path d="M119.556 184.888L127.26 184.888L127.26 192.592L119.556 192.592L119.556 184.888Z" fill="#0041A9"/>
<path d="M111.851 184.888L119.556 184.888L119.556 192.592L111.851 192.592L111.851 184.888Z" fill="#0041A9"/>
<path d="M104.147 184.888L111.852 184.888L111.852 192.592L104.147 192.592L104.147 184.888Z" fill="#0041A9"/>
<path d="M181.186 6.23446e-07L188.89 0L188.89 7.70412L181.186 7.70412L181.186 6.23446e-07Z" fill="white"/>
<path d="M188.888 7.70386L196.592 7.70386L196.592 15.408L188.888 15.408L188.888 7.70386Z" fill="white"/>
<path d="M196.592 15.4084L204.296 15.4084L204.296 23.1126L196.592 23.1126L196.592 15.4084Z" fill="white"/>
<path d="M204.296 23.1106L212 23.1106L212 30.8147L204.296 30.8147L204.296 23.1106Z" fill="white"/>
<path d="M204.296 30.8147L212 30.8147L212 38.5189L204.296 38.5189L204.296 30.8147Z" fill="white"/>
<path d="M204.296 38.519L212 38.519L212 46.2232L204.296 46.2232L204.296 38.519Z" fill="white"/>
<path d="M204.296 46.2214L212 46.2214L212 53.9256L204.296 53.9256L204.296 46.2214Z" fill="white"/>
<path d="M204.296 53.9255L212 53.9255L212 61.6297L204.296 61.6297L204.296 53.9255Z" fill="white"/>
<path d="M204.296 61.6294L212 61.6294L212 69.3335L204.296 69.3335L204.296 61.6294Z" fill="white"/>
<path d="M204.296 69.334L212 69.334L212 77.0382L204.296 77.0382L204.296 69.334Z" fill="white"/>
<path d="M204.296 77.0364L212 77.0364L212 84.7406L204.296 84.7406L204.296 77.0364Z" fill="white"/>
<path d="M204.296 84.7402L212 84.7402L212 92.4444L204.296 92.4444L204.296 84.7402Z" fill="white"/>
<path d="M204.296 92.4448L212 92.4448L212 100.149L204.296 100.149L204.296 92.4448Z" fill="white"/>
<path d="M3.99998 23.1106L11.7041 23.1106L11.7041 30.8147L3.99998 30.8147L3.99998 23.1106Z" fill="white"/>
<path d="M11.7021 15.4084L19.4062 15.4084L19.4063 23.1126L11.7021 23.1126L11.7021 15.4084Z" fill="white"/>
<path d="M19.4072 7.70386L27.1113 7.70386L27.1113 15.408L19.4072 15.408L19.4072 7.70386Z" fill="white"/>
<path d="M27.1103 6.2345e-07L34.8145 0L34.8145 7.70412L27.1103 7.70412L27.1103 6.2345e-07Z" fill="white"/>
<path d="M34.8154 6.23446e-07L42.5195 0L42.5195 7.70412L34.8154 7.70412L34.8154 6.23446e-07Z" fill="white"/>
<path d="M42.5176 6.23446e-07L50.2217 0L50.2217 7.70412L42.5176 7.70412L42.5176 6.23446e-07Z" fill="white"/>
<path d="M50.2216 6.2345e-07L57.9258 0L57.9258 7.70412L50.2216 7.70412L50.2216 6.2345e-07Z" fill="white"/>
<path d="M57.9258 6.23446e-07L65.6299 0L65.6299 7.70412L57.9258 7.70412L57.9258 6.23446e-07Z" fill="white"/>
<path d="M65.6298 6.2345e-07L73.334 0L73.334 7.70412L65.6298 7.70412L65.6298 6.2345e-07Z" fill="white"/>
<path d="M73.332 6.2345e-07L81.0361 0L81.0361 7.70412L73.332 7.70412L73.332 6.2345e-07Z" fill="white"/>
<path d="M81.0361 6.23446e-07L88.7402 0L88.7402 7.70412L81.0361 7.70412L81.0361 6.23446e-07Z" fill="white"/>
<path d="M88.7402 6.2345e-07L96.4443 0L96.4443 7.70412L88.7402 7.70412L88.7402 6.2345e-07Z" fill="white"/>
<path d="M96.4433 6.2345e-07L104.147 0L104.147 7.70412L96.4433 7.70412L96.4433 6.2345e-07Z" fill="white"/>
<path d="M173.481 6.2345e-07L181.186 0L181.186 7.70412L173.481 7.70412L173.481 6.2345e-07Z" fill="white"/>
<path d="M165.777 6.23446e-07L173.481 0L173.481 7.70412L165.777 7.70412L165.777 6.23446e-07Z" fill="white"/>
<path d="M158.073 6.2345e-07L165.777 0L165.777 7.70412L158.073 7.70412L158.073 6.2345e-07Z" fill="white"/>
<path d="M150.37 6.2345e-07L158.074 0L158.074 7.70412L150.37 7.70412L150.37 6.2345e-07Z" fill="white"/>
<path d="M142.666 6.23446e-07L150.37 0L150.37 7.70412L142.666 7.70412L142.666 6.23446e-07Z" fill="white"/>
<path d="M134.962 6.2345e-07L142.666 0L142.666 7.70412L134.962 7.70412L134.962 6.2345e-07Z" fill="white"/>
<path d="M127.26 6.2345e-07L134.964 0L134.964 7.70412L127.26 7.70412L127.26 6.2345e-07Z" fill="white"/>
<path d="M119.556 6.23446e-07L127.26 0L127.26 7.70412L119.556 7.70412L119.556 6.23446e-07Z" fill="white"/>
<path d="M111.851 6.2345e-07L119.556 0L119.556 7.70412L111.851 7.70412L111.851 6.2345e-07Z" fill="white"/>
<path d="M104.147 6.23446e-07L111.852 0L111.852 7.70412L104.147 7.70412L104.147 6.23446e-07Z" fill="white"/>
<path d="M181.186 192.594L188.89 192.594L188.89 200.298L181.186 200.298L181.186 192.594Z" fill="white"/>
<path d="M188.888 184.889L196.592 184.889L196.592 192.594L188.888 192.594L188.888 184.889Z" fill="white"/>
<path d="M196.592 177.185L204.296 177.185L204.296 184.889L196.592 184.889L196.592 177.185Z" fill="white"/>
<path d="M204.296 169.48L212 169.48L212 177.185L204.296 177.185L204.296 169.48Z" fill="white"/>
<path d="M204.296 161.777L212 161.777L212 169.481L204.296 169.481L204.296 161.777Z" fill="white"/>
<path d="M204.296 154.074L212 154.074L212 161.778L204.296 161.778L204.296 154.074Z" fill="white"/>
<path d="M204.296 146.37L212 146.37L212 154.074L204.296 154.074L204.296 146.37Z" fill="white"/>
<path d="M204.296 138.666L212 138.666L212 146.37L204.296 146.37L204.296 138.666Z" fill="white"/>
<path d="M204.296 130.963L212 130.963L212 138.668L204.296 138.668L204.296 130.963Z" fill="white"/>
<path d="M204.296 123.26L212 123.26L212 130.964L204.296 130.964L204.296 123.26Z" fill="white"/>
<path d="M204.296 115.555L212 115.555L212 123.259L204.296 123.259L204.296 115.555Z" fill="white"/>
<path d="M204.296 107.851L212 107.851L212 115.555L204.296 115.555L204.296 107.851Z" fill="white"/>
<path d="M204.296 100.149L212 100.149L212 107.853L204.296 107.853L204.296 100.149Z" fill="white"/>
<path d="M27.1103 192.594L34.8145 192.594L34.8145 200.298L27.1103 200.298L27.1103 192.594Z" fill="white"/>
<path d="M19.4062 184.89L27.1104 184.89L27.1104 192.594L19.4062 192.594L19.4062 184.89Z" fill="white"/>
<path d="M11.7021 177.185L19.4062 177.185L19.4063 184.889L11.7021 184.889L11.7021 177.185Z" fill="white"/>
<path d="M3.99998 169.481L11.7041 169.481L11.7041 177.185L3.99998 177.185L3.99998 169.481Z" fill="white"/>
<path d="M3.99998 161.777L11.7041 161.777L11.7041 169.481L3.99998 169.481L3.99998 161.777Z" fill="white"/>
<path d="M3.99998 154.074L11.7041 154.074L11.7041 161.778L3.99998 161.778L3.99998 154.074Z" fill="white"/>
<path d="M3.99998 146.37L11.7041 146.37L11.7041 154.074L3.99998 154.074L3.99998 146.37Z" fill="white"/>
<path d="M3.99998 138.666L11.7041 138.666L11.7041 146.37L3.99998 146.37L3.99998 138.666Z" fill="white"/>
<path d="M3.99998 130.963L11.7041 130.963L11.7041 138.668L3.99998 138.668L3.99998 130.963Z" fill="white"/>
<path d="M3.99998 123.26L11.7041 123.26L11.7041 130.964L3.99998 130.964L3.99998 123.26Z" fill="white"/>
<path d="M3.99998 115.555L11.7041 115.555L11.7041 123.259L3.99998 123.259L3.99998 115.555Z" fill="white"/>
<path d="M3.99998 107.851L11.7041 107.851L11.7041 115.555L3.99998 115.555L3.99998 107.851Z" fill="white"/>
<path d="M3.99998 100.149L11.7041 100.149L11.7041 107.853L3.99998 107.853L3.99998 100.149Z" fill="white"/>
<path d="M3.99998 30.8147L11.7041 30.8147L11.7041 38.5189L3.99998 38.5189L3.99998 30.8147Z" fill="white"/>
<path d="M3.99998 38.5193L11.7041 38.5193L11.7041 46.2234L3.99998 46.2234L3.99998 38.5193Z" fill="white"/>
<path d="M3.99998 46.2219L11.7041 46.2219L11.7041 53.926L3.99998 53.926L3.99998 46.2219Z" fill="white"/>
<path d="M3.99998 53.9255L11.7041 53.9255L11.7041 61.6297L3.99998 61.6297L3.99998 53.9255Z" fill="white"/>
<path d="M3.99998 61.6294L11.7041 61.6294L11.7041 69.3335L3.99998 69.3335L3.99998 61.6294Z" fill="white"/>
<path d="M3.99998 69.3337L11.7041 69.3337L11.7041 77.0379L3.99998 77.0379L3.99998 69.3337Z" fill="white"/>
<path d="M3.99998 77.0364L11.7041 77.0364L11.7041 84.7406L3.99998 84.7406L3.99998 77.0364Z" fill="white"/>
<path d="M3.99998 84.7405L11.7041 84.7405L11.7041 92.4446L3.99998 92.4446L3.99998 84.7405Z" fill="white"/>
<path d="M3.99998 92.4446L11.7041 92.4446L11.7041 100.149L3.99998 100.149L3.99998 92.4446Z" fill="white"/>
<path d="M34.8154 192.594L42.5195 192.594L42.5195 200.298L34.8154 200.298L34.8154 192.594Z" fill="white"/>
<path d="M65.6298 192.594L73.334 192.594L73.334 200.298L65.6298 200.298L65.6298 192.594Z" fill="white"/>
<path d="M73.3329 192.594L81.0371 192.594L81.0371 200.298L73.3329 200.298L73.3329 192.594Z" fill="white"/>
<path d="M81.0371 192.594L88.7412 192.594L88.7412 200.298L81.0371 200.298L81.0371 192.594Z" fill="white"/>
<path d="M88.7411 192.594L96.4453 192.594L96.4453 200.298L88.7411 200.298L88.7411 192.594Z" fill="white"/>
<path d="M96.4433 192.594L104.147 192.594L104.147 200.298L96.4433 200.298L96.4433 192.594Z" fill="white"/>
<path d="M173.481 192.594L181.186 192.594L181.186 200.298L173.481 200.298L173.481 192.594Z" fill="white"/>
<path d="M165.777 192.594L173.481 192.594L173.481 200.298L165.777 200.298L165.777 192.594Z" fill="white"/>
<path d="M158.073 192.594L165.777 192.594L165.777 200.298L158.073 200.298L158.073 192.594Z" fill="white"/>
<path d="M150.371 192.594L158.075 192.594L158.075 200.298L150.371 200.298L150.371 192.594Z" fill="white"/>
<path d="M142.667 192.594L150.371 192.594L150.371 200.298L142.667 200.298L142.667 192.594Z" fill="white"/>
<path d="M134.963 192.594L142.667 192.594L142.667 200.298L134.963 200.298L134.963 192.594Z" fill="white"/>
<path d="M127.26 192.594L134.964 192.594L134.964 200.298L127.26 200.298L127.26 192.594Z" fill="white"/>
<path d="M119.556 192.594L127.26 192.594L127.26 200.298L119.556 200.298L119.556 192.594Z" fill="white"/>
<path d="M111.851 192.594L119.556 192.594L119.556 200.298L111.851 200.298L111.851 192.594Z" fill="white"/>
<path d="M104.147 192.594L111.852 192.594L111.852 200.298L104.147 200.298L104.147 192.594Z" fill="white"/>
<path d="M47.6659 19.2981H41.499V25.465H47.6659V19.2981Z" fill="#0041A9"/>
<path d="M41.5009 25.4648H35.334V31.6317H41.5009V25.4648Z" fill="#0041A9"/>
<path d="M47.6659 25.4648H41.499V31.6317H47.6659V25.4648Z" fill="#0041A9"/>
<path d="M41.5009 31.6321H35.334V37.799H41.5009V31.6321Z" fill="#0041A9"/>
<path d="M35.3339 37.7974H29.167V43.9643H35.3339V37.7974Z" fill="#0041A9"/>
<path d="M35.3339 31.6321H29.167V37.799H35.3339V31.6321Z" fill="#0041A9"/>
<path d="M29.1669 37.7974H23V43.9643H29.1669V37.7974Z" fill="#0041A9"/>
<path d="M29.1669 43.9641H23V50.131H29.1669V43.9641Z" fill="#0041A9"/>
<path d="M29.1669 50.1309H23V56.2978H29.1669V50.1309Z" fill="#0041A9"/>
<path d="M53.833 19.2981H47.666V25.465H53.833V19.2981Z" fill="#0041A9"/>
<path d="M60 19.2981H53.833V25.465H60V19.2981Z" fill="#0041A9"/>
<path d="M132.17 119.941H126.051V126.06H132.17V119.941Z" fill="#C2C2D1"/>
<path d="M125.898 120.017H119.932V126.136H125.898V120.017Z" fill="#BA6156"/>
<path d="M119.932 126.136H113.966V132.102H119.932V126.136Z" fill="#BA6156"/>
<path d="M95.915 150V155.966H102.111H108V150H102.111H95.915Z" fill="#BA6156"/>
<path d="M95.9152 137.992V132.026V126.136H89.9492V132.026V137.992V143.958V150.001H95.9152V143.958V137.992Z" fill="#BA6156"/>
<path d="M84.0591 120.017H78.0931H71.9741H65.9316V126.136H71.9741H78.0931H84.0591H89.9486V120.017H84.0591Z" fill="#BA6156"/>
<path d="M71.8976 48.1191H65.9316V54.0851H71.8976V48.1191Z" fill="#BA6156"/>
<path d="M65.9318 108.085H71.9743H78.0933H84.0593H89.9488V101.966H84.0593H78.0933H71.9743H65.9318V95.9235V90.034H71.9743H78.0933H84.0593H89.9488V84.068H84.0593H78.0933H71.9743H65.9318V78.0255V72.136H71.9743H78.0933H84.0593H89.9488V66.17H84.0593H78.0933H71.9743H65.9318V59.9745V54.085H59.9658V59.9745V66.0935V72.0595V78.0255V83.9915V89.9575V95.9235V101.89V108.008V113.974V120.017H65.9318V113.974V108.085Z" fill="#BA6156"/>
<path d="M120.008 48.1191H114.042H108.076H102.11H95.9911H90.0251H84.0591H78.0931H71.8976V54.0851H65.9316V59.9747V66.1701H71.9741H78.0931H84.0591H89.9486V72.1361H84.0591H78.0931H71.9741H65.9316V78.0257V84.0682H71.9741H78.0931H84.0591H89.9486V90.0342H84.0591H78.0931H71.9741H65.9316V95.9237V101.966H71.9741H78.0931H84.0591H89.9486V108.085H84.0591H78.0931H71.9741H65.9316V113.975V120.017H71.9741H78.0931H84.0591H89.9486V126.136H95.9146V132.026V137.992V143.958V150H102.11H108.076H113.966V143.958V137.992V132.026V126.136H119.932V120.017H125.898V113.975V108.009V101.89V95.9237V89.9577V83.9917V78.0257V72.0597V66.0936V59.9747V54.0087V48.1191H120.008Z" fill="#F7C8A1"/>
<path d="M149.991 120.017H144.025H138.059H132.017V126.136H138.059H144.025H149.991H156.034V120.017H149.991Z" fill="#4B5BAB"/>
<path d="M149.991 60.051H144.025H138.059H132.017V66.0935V72.0595V78.0255V83.9915V89.9576V95.9236V101.89V108.009V113.975V120.017H138.059H144.025H149.991H156.034V113.975V108.009V101.89V95.9236V89.9576V83.9915V78.0255V72.0595V66.0935V60.051H149.991Z" fill="#4DA6FF"/>
<path d="M144.025 126.136H138.059H132.093H125.974H119.932V132.102H125.974H132.093H138.059H144.025H149.991H156.034V126.136H149.991H144.025Z" fill="#0041A9"/>
<path d="M138.059 60.051H144.025H149.991H156.034V66.0935V72.0595V78.0255V83.9915V89.9575V95.9235V101.89V108.008V113.974V119.941V126.136H162V119.941V113.974V108.008V101.89V95.9235V89.9575V83.9915V78.0255V72.0595V66.0935V59.9745V54.085H156.11H149.991H144.025H138.059H132.017V60.051H138.059Z" fill="#0041A9"/>
<path d="M132.017 48.1191H125.898V54.0851H132.017V48.1191Z" fill="#0041A9"/>
<path d="M113.966 137.992V143.958V150H119.932V143.958V137.992V132.102H113.966V137.992Z" fill="#0041A9"/>
<path d="M113.966 150H108V155.966H113.966V150Z" fill="#0041A9"/>
<path d="M95.915 155.966V162.085H102.111H108V155.966H102.111H95.915Z" fill="#0041A9"/>
<path d="M95.9152 150H89.9492V155.966H95.9152V150Z" fill="#0041A9"/>
<path d="M89.9486 137.992V132.026V126.136H84.0591H78.0931H71.9741H65.9316V132.102H71.9741H78.0931H83.9826V137.992V143.958V150H89.9486V143.958V137.992Z" fill="#0041A9"/>
<path d="M78.0931 48.119H84.0591H90.0251H95.9911H102.11H108.076H114.042H120.008H125.898V42H120.008H114.042H108.076H102.11H95.9911H90.0251H84.0591H78.0931H71.9741H65.9316V48.119H71.9741H78.0931Z" fill="#0041A9"/>
<path d="M65.9318 120.017H59.9658V126.136H65.9318V120.017Z" fill="#0041A9"/>
<path d="M65.9318 48.1191H59.9658V54.0851H65.9318V48.1191Z" fill="#0041A9"/>
<path d="M59.966 113.974V108.008V101.89V95.9235V89.9575V83.9915V78.0255V72.0595V66.0935V59.9745V54.085H54V59.9745V66.0935V72.0595V78.0255V83.9915V89.9575V95.9235V101.89V108.008V113.974V120.017H59.966V113.974Z" fill="#0041A9"/>
<path d="M125.898 59.9745V66.0935V72.0595V78.0255V83.9915V89.9575V95.9235V101.89V108.008V113.974V120.017H132.017V113.974V108.008V101.89V95.9235V89.9575V83.9915V78.0255V72.0595V66.0935V59.9745V54.085H125.898V59.9745Z" fill="#FFFFEB"/>
</g>
<defs>
<filter id="filter0_d_47_5329" x="0" y="0" width="216" height="214.298" filterUnits="userSpaceOnUse" color-interpolation-filters="sRGB">
<feFlood flood-opacity="0" result="BackgroundImageFix"/>
<feColorMatrix in="SourceAlpha" type="matrix" values="0 0 0 0 0 0 0 0 0 0 0 0 0 0 0 0 0 0 127 0" result="hardAlpha"/>
<feOffset dy="10"/>
<feGaussianBlur stdDeviation="2"/>
<feComposite in2="hardAlpha" operator="out"/>
<feColorMatrix type="matrix" values="0 0 0 0 0 0 0 0 0 0 0 0 0 0 0 0 0 0 0.25 0"/>
<feBlend mode="normal" in2="BackgroundImageFix" result="effect1_dropShadow_47_5329"/>
<feBlend mode="normal" in="SourceGraphic" in2="effect1_dropShadow_47_5329" result="shape"/>
</filter>
</defs>
</svg>

