<svg width="208" height="201" viewBox="0 0 208 201" fill="none" xmlns="http://www.w3.org/2000/svg">
<path fill-rule="evenodd" clip-rule="evenodd" d="M23.1107 183.594V191.298H184.889V183.594H192.593V175.891H200.296V21.817H192.593V14.1128H184.889V6.40868H169.481H146.37H23.1107V14.1128H15.4083V21.817H7.7041V175.891H15.4083V183.594H23.1107Z" fill="white"/>
<path d="M177.186 184.888L184.89 184.888L184.89 192.592L177.186 192.592L177.186 184.888Z" fill="#D1D1D1"/>
<path d="M184.888 177.184L192.592 177.184L192.592 184.888L184.888 184.888L184.888 177.184Z" fill="#D1D1D1"/>
<path d="M192.592 169.48L200.296 169.48L200.296 177.184L192.592 177.184L192.592 169.48Z" fill="#D1D1D1"/>
<path d="M30.8154 184.888L38.5195 184.888L38.5195 192.592L30.8154 192.592L30.8154 184.888Z" fill="#D1D1D1"/>
<path d="M23.1113 184.888L30.8154 184.888L30.8154 192.592L23.1113 192.592L23.1113 184.888Z" fill="#D1D1D1"/>
<path d="M15.4072 177.184L23.1113 177.184L23.1113 184.888L15.4072 184.888L15.4072 177.184Z" fill="#D1D1D1"/>
<path d="M7.7031 169.48L15.4072 169.48L15.4072 177.184L7.70311 177.184L7.7031 169.48Z" fill="#D1D1D1"/>
<path d="M61.6308 184.888L69.335 184.888L69.335 192.592L61.6308 192.592L61.6308 184.888Z" fill="#D1D1D1"/>
<path d="M54.2958 184.888L62 184.888L62 192.592L54.2958 192.592L54.2958 184.888Z" fill="#D1D1D1"/>
<path d="M46.9618 184.888L54.666 184.888L54.666 192.592L46.9618 192.592L46.9618 184.888Z" fill="#D1D1D1"/>
<path d="M39.6279 184.888L47.332 184.888L47.332 192.592L39.6279 192.592L39.6279 184.888Z" fill="#D1D1D1"/>
<path d="M32.2939 184.888L39.998 184.888L39.998 192.592L32.2939 192.592L32.2939 184.888Z" fill="#D1D1D1"/>
<path d="M53.9258 192.592L61.6299 192.592L61.6299 200.297L53.9258 200.297L53.9258 192.592Z" fill="#000600"/>
<path d="M38.5176 192.592L47 192.592L47 200.297L38.5176 200.297L38.5176 192.592Z" fill="#000600"/>
<path d="M46.2959 192.592L54 192.592L54 200.297L46.2959 200.297L46.2959 192.592Z" fill="#000600"/>
<path d="M69.3329 184.888L77.0371 184.888L77.0371 192.592L69.3329 192.592L69.3329 184.888Z" fill="#D1D1D1"/>
<path d="M77.0371 184.888L84.7412 184.888L84.7412 192.592L77.0371 192.592L77.0371 184.888Z" fill="#D1D1D1"/>
<path d="M84.7411 184.888L92.4453 184.888L92.4453 192.592L84.7411 192.592L84.7411 184.888Z" fill="#D1D1D1"/>
<path d="M92.4433 184.888L100.147 184.888L100.147 192.592L92.4433 192.592L92.4433 184.888Z" fill="#D1D1D1"/>
<path d="M169.481 184.888L177.186 184.888L177.186 192.592L169.481 192.592L169.481 184.888Z" fill="#D1D1D1"/>
<path d="M161.777 184.888L169.481 184.888L169.481 192.592L161.777 192.592L161.777 184.888Z" fill="#D1D1D1"/>
<path d="M154.073 184.888L161.777 184.888L161.777 192.592L154.073 192.592L154.073 184.888Z" fill="#D1D1D1"/>
<path d="M146.371 184.888L154.075 184.888L154.075 192.592L146.371 192.592L146.371 184.888Z" fill="#D1D1D1"/>
<path d="M138.667 184.888L146.371 184.888L146.371 192.592L138.667 192.592L138.667 184.888Z" fill="#D1D1D1"/>
<path d="M130.963 184.888L138.667 184.888L138.667 192.592L130.963 192.592L130.963 184.888Z" fill="#D1D1D1"/>
<path d="M123.26 184.888L130.964 184.888L130.964 192.592L123.26 192.592L123.26 184.888Z" fill="#D1D1D1"/>
<path d="M115.556 184.888L123.26 184.888L123.26 192.592L115.556 192.592L115.556 184.888Z" fill="#D1D1D1"/>
<path d="M107.851 184.888L115.556 184.888L115.556 192.592L107.851 192.592L107.851 184.888Z" fill="#D1D1D1"/>
<path d="M100.147 184.888L107.852 184.888L107.852 192.592L100.147 192.592L100.147 184.888Z" fill="#D1D1D1"/>
<path d="M177.186 6.23446e-07L184.89 0L184.89 7.70412L177.186 7.70412L177.186 6.23446e-07Z" fill="#000600"/>
<path d="M184.888 7.70386L192.592 7.70386L192.592 15.408L184.888 15.408L184.888 7.70386Z" fill="#000600"/>
<path d="M192.592 15.4084L200.296 15.4084L200.296 23.1126L192.592 23.1126L192.592 15.4084Z" fill="#000600"/>
<path d="M200.296 23.1106L208 23.1106L208 30.8147L200.296 30.8147L200.296 23.1106Z" fill="#000600"/>
<path d="M200.296 30.8147L208 30.8147L208 38.5189L200.296 38.5189L200.296 30.8147Z" fill="#000600"/>
<path d="M200.296 38.519L208 38.519L208 46.2232L200.296 46.2232L200.296 38.519Z" fill="#000600"/>
<path d="M200.296 46.2214L208 46.2214L208 53.9256L200.296 53.9256L200.296 46.2214Z" fill="#000600"/>
<path d="M200.296 53.9255L208 53.9255L208 61.6297L200.296 61.6297L200.296 53.9255Z" fill="#000600"/>
<path d="M200.296 61.6294L208 61.6294L208 69.3335L200.296 69.3335L200.296 61.6294Z" fill="#000600"/>
<path d="M200.296 69.334L208 69.334L208 77.0382L200.296 77.0382L200.296 69.334Z" fill="#000600"/>
<path d="M200.296 77.0364L208 77.0364L208 84.7406L200.296 84.7406L200.296 77.0364Z" fill="#000600"/>
<path d="M200.296 84.7402L208 84.7402L208 92.4444L200.296 92.4444L200.296 84.7402Z" fill="#000600"/>
<path d="M200.296 92.4448L208 92.4448L208 100.149L200.296 100.149L200.296 92.4448Z" fill="#000600"/>
<path d="M-2.00272e-05 23.1106L7.7041 23.1106L7.7041 30.8147L-1.92422e-05 30.8147L-2.00272e-05 23.1106Z" fill="#000600"/>
<path d="M7.70213 15.4084L15.4062 15.4084L15.4063 23.1126L7.70213 23.1126L7.70213 15.4084Z" fill="#000600"/>
<path d="M15.4072 7.70386L23.1113 7.70386L23.1113 15.408L15.4072 15.408L15.4072 7.70386Z" fill="#000600"/>
<path d="M23.1103 6.2345e-07L30.8145 0L30.8145 7.70412L23.1103 7.70412L23.1103 6.2345e-07Z" fill="#000600"/>
<path d="M30.8154 6.23446e-07L38.5195 0L38.5195 7.70412L30.8154 7.70412L30.8154 6.23446e-07Z" fill="#000600"/>
<path d="M38.5176 6.23446e-07L46.2217 0L46.2217 7.70412L38.5176 7.70412L38.5176 6.23446e-07Z" fill="#000600"/>
<path d="M46.2216 6.2345e-07L53.9258 0L53.9258 7.70412L46.2216 7.70412L46.2216 6.2345e-07Z" fill="#000600"/>
<path d="M53.9258 6.23446e-07L61.6299 0L61.6299 7.70412L53.9258 7.70412L53.9258 6.23446e-07Z" fill="#000600"/>
<path d="M61.6298 6.2345e-07L69.334 0L69.334 7.70412L61.6298 7.70412L61.6298 6.2345e-07Z" fill="#000600"/>
<path d="M69.332 6.2345e-07L77.0361 0L77.0361 7.70412L69.332 7.70412L69.332 6.2345e-07Z" fill="#000600"/>
<path d="M77.0361 6.23446e-07L84.7402 0L84.7402 7.70412L77.0361 7.70412L77.0361 6.23446e-07Z" fill="#000600"/>
<path d="M84.7402 6.2345e-07L92.4443 0L92.4443 7.70412L84.7402 7.70412L84.7402 6.2345e-07Z" fill="#000600"/>
<path d="M92.4433 6.2345e-07L100.147 0L100.147 7.70412L92.4433 7.70412L92.4433 6.2345e-07Z" fill="#000600"/>
<path d="M169.481 6.2345e-07L177.186 0L177.186 7.70412L169.481 7.70412L169.481 6.2345e-07Z" fill="#000600"/>
<path d="M161.777 6.23446e-07L169.481 0L169.481 7.70412L161.777 7.70412L161.777 6.23446e-07Z" fill="#000600"/>
<path d="M154.073 6.2345e-07L161.777 0L161.777 7.70412L154.073 7.70412L154.073 6.2345e-07Z" fill="#000600"/>
<path d="M146.37 6.2345e-07L154.074 0L154.074 7.70412L146.37 7.70412L146.37 6.2345e-07Z" fill="#000600"/>
<path d="M138.666 6.23446e-07L146.37 0L146.37 7.70412L138.666 7.70412L138.666 6.23446e-07Z" fill="#000600"/>
<path d="M130.962 6.2345e-07L138.666 0L138.666 7.70412L130.962 7.70412L130.962 6.2345e-07Z" fill="#000600"/>
<path d="M123.26 6.2345e-07L130.964 0L130.964 7.70412L123.26 7.70412L123.26 6.2345e-07Z" fill="#000600"/>
<path d="M115.556 6.23446e-07L123.26 0L123.26 7.70412L115.556 7.70412L115.556 6.23446e-07Z" fill="#000600"/>
<path d="M107.851 6.2345e-07L115.556 0L115.556 7.70412L107.851 7.70412L107.851 6.2345e-07Z" fill="#000600"/>
<path d="M100.147 6.23446e-07L107.852 0L107.852 7.70412L100.147 7.70412L100.147 6.23446e-07Z" fill="#000600"/>
<path d="M177.186 192.594L184.89 192.594L184.89 200.298L177.186 200.298L177.186 192.594Z" fill="#000600"/>
<path d="M184.888 184.889L192.592 184.889L192.592 192.594L184.888 192.594L184.888 184.889Z" fill="#000600"/>
<path d="M192.592 177.185L200.296 177.185L200.296 184.889L192.592 184.889L192.592 177.185Z" fill="#000600"/>
<path d="M200.296 169.48L208 169.48L208 177.184L200.296 177.184L200.296 169.48Z" fill="#000600"/>
<path d="M200.296 161.776L208 161.776L208 169.481L200.296 169.481L200.296 161.776Z" fill="#000600"/>
<path d="M200.296 154.074L208 154.074L208 161.778L200.296 161.778L200.296 154.074Z" fill="#000600"/>
<path d="M200.296 146.37L208 146.37L208 154.074L200.296 154.074L200.296 146.37Z" fill="#000600"/>
<path d="M200.296 138.666L208 138.666L208 146.37L200.296 146.37L200.296 138.666Z" fill="#000600"/>
<path d="M200.296 130.963L208 130.963L208 138.668L200.296 138.668L200.296 130.963Z" fill="#000600"/>
<path d="M200.296 123.26L208 123.26L208 130.964L200.296 130.964L200.296 123.26Z" fill="#000600"/>
<path d="M200.296 115.555L208 115.555L208 123.259L200.296 123.259L200.296 115.555Z" fill="#000600"/>
<path d="M200.296 107.851L208 107.851L208 115.555L200.296 115.555L200.296 107.851Z" fill="#000600"/>
<path d="M200.296 100.149L208 100.149L208 107.853L200.296 107.853L200.296 100.149Z" fill="#000600"/>
<path d="M23.1103 192.594L30.8145 192.594L30.8145 200.298L23.1103 200.298L23.1103 192.594Z" fill="#000600"/>
<path d="M15.4062 184.89L23.1104 184.89L23.1104 192.594L15.4062 192.594L15.4062 184.89Z" fill="#000600"/>
<path d="M7.70213 177.185L15.4062 177.185L15.4063 184.889L7.70213 184.889L7.70213 177.185Z" fill="#000600"/>
<path d="M-2.00272e-05 169.481L7.7041 169.481L7.7041 177.185L-1.91173e-05 177.185L-2.00272e-05 169.481Z" fill="#000600"/>
<path d="M-2.00272e-05 161.777L7.7041 161.777L7.7041 169.481L-1.91173e-05 169.481L-2.00272e-05 161.777Z" fill="#000600"/>
<path d="M-2.00272e-05 154.074L7.7041 154.074L7.7041 161.778L-1.91173e-05 161.778L-2.00272e-05 154.074Z" fill="#000600"/>
<path d="M-2.00272e-05 146.37L7.7041 146.37L7.7041 154.074L-1.91173e-05 154.074L-2.00272e-05 146.37Z" fill="#000600"/>
<path d="M-2.00272e-05 138.666L7.7041 138.666L7.7041 146.37L-1.91173e-05 146.37L-2.00272e-05 138.666Z" fill="#000600"/>
<path d="M-2.00272e-05 130.963L7.7041 130.963L7.7041 138.668L-1.91173e-05 138.668L-2.00272e-05 130.963Z" fill="#000600"/>
<path d="M-2.00272e-05 123.26L7.7041 123.26L7.7041 130.964L-1.91173e-05 130.964L-2.00272e-05 123.26Z" fill="#000600"/>
<path d="M-2.00272e-05 115.555L7.7041 115.555L7.7041 123.259L-1.91173e-05 123.259L-2.00272e-05 115.555Z" fill="#000600"/>
<path d="M-2.00272e-05 107.851L7.7041 107.851L7.7041 115.555L-1.91173e-05 115.555L-2.00272e-05 107.851Z" fill="#000600"/>
<path d="M-2.00272e-05 100.149L7.7041 100.149L7.7041 107.853L-1.91815e-05 107.853L-2.00272e-05 100.149Z" fill="#000600"/>
<path d="M-2.00272e-05 30.8147L7.7041 30.8147L7.7041 38.5189L-1.92422e-05 38.5189L-2.00272e-05 30.8147Z" fill="#000600"/>
<path d="M-2.00272e-05 38.5189L7.7041 38.5189L7.7041 46.223L-1.91815e-05 46.223L-2.00272e-05 38.5189Z" fill="#000600"/>
<path d="M-2.00272e-05 46.2216L7.7041 46.2216L7.7041 53.9257L-1.91815e-05 53.9257L-2.00272e-05 46.2216Z" fill="#000600"/>
<path d="M-2.00272e-05 53.9255L7.7041 53.9255L7.7041 61.6297L-1.91815e-05 61.6297L-2.00272e-05 53.9255Z" fill="#000600"/>
<path d="M-2.00272e-05 61.6295L7.7041 61.6295L7.7041 69.3336L-1.91815e-05 69.3336L-2.00272e-05 61.6295Z" fill="#000600"/>
<path d="M-2.00272e-05 69.3336L7.7041 69.3336L7.7041 77.0378L-1.91815e-05 77.0378L-2.00272e-05 69.3336Z" fill="#000600"/>
<path d="M-2.00272e-05 77.0365L7.7041 77.0365L7.7041 84.7407L-1.91815e-05 84.7407L-2.00272e-05 77.0365Z" fill="#000600"/>
<path d="M-2.00272e-05 84.7404L7.7041 84.7404L7.7041 92.4445L-1.91815e-05 92.4445L-2.00272e-05 84.7404Z" fill="#000600"/>
<path d="M-2.00272e-05 92.4443L7.7041 92.4443L7.7041 100.149L-1.91815e-05 100.149L-2.00272e-05 92.4443Z" fill="#000600"/>
<path d="M30.8154 192.594L38.5195 192.594L38.5195 200.298L30.8154 200.298L30.8154 192.594Z" fill="#000600"/>
<path d="M61.6298 192.594L69.334 192.594L69.334 200.298L61.6298 200.298L61.6298 192.594Z" fill="#000600"/>
<path d="M69.3329 192.594L77.0371 192.594L77.0371 200.298L69.3329 200.298L69.3329 192.594Z" fill="#000600"/>
<path d="M77.0371 192.594L84.7412 192.594L84.7412 200.298L77.0371 200.298L77.0371 192.594Z" fill="#000600"/>
<path d="M84.7411 192.594L92.4453 192.594L92.4453 200.298L84.7411 200.298L84.7411 192.594Z" fill="#000600"/>
<path d="M92.4433 192.594L100.147 192.594L100.147 200.298L92.4433 200.298L92.4433 192.594Z" fill="#000600"/>
<path d="M169.481 192.594L177.186 192.594L177.186 200.298L169.481 200.298L169.481 192.594Z" fill="#000600"/>
<path d="M161.777 192.594L169.481 192.594L169.481 200.298L161.777 200.298L161.777 192.594Z" fill="#000600"/>
<path d="M154.073 192.594L161.777 192.594L161.777 200.298L154.073 200.298L154.073 192.594Z" fill="#000600"/>
<path d="M146.371 192.594L154.075 192.594L154.075 200.298L146.371 200.298L146.371 192.594Z" fill="#000600"/>
<path d="M138.667 192.594L146.371 192.594L146.371 200.298L138.667 200.298L138.667 192.594Z" fill="#000600"/>
<path d="M130.963 192.594L138.667 192.594L138.667 200.298L130.963 200.298L130.963 192.594Z" fill="#000600"/>
<path d="M123.26 192.594L130.964 192.594L130.964 200.298L123.26 200.298L123.26 192.594Z" fill="#000600"/>
<path d="M115.556 192.594L123.26 192.594L123.26 200.298L115.556 200.298L115.556 192.594Z" fill="#000600"/>
<path d="M107.851 192.594L115.556 192.594L115.556 200.298L107.851 200.298L107.851 192.594Z" fill="#000600"/>
<path d="M100.147 192.594L107.852 192.594L107.852 200.298L100.147 200.298L100.147 192.594Z" fill="#000600"/>
<path d="M43.6659 19.2979H37.499V25.4648H43.6659V19.2979Z" fill="#D1D1D1"/>
<path d="M37.5009 25.4648H31.334V31.6317H37.5009V25.4648Z" fill="#D1D1D1"/>
<path d="M43.6659 25.4648H37.499V31.6317H43.6659V25.4648Z" fill="#D1D1D1"/>
<path d="M37.5009 31.6318H31.334V37.7988H37.5009V31.6318Z" fill="#D1D1D1"/>
<path d="M31.3339 37.7974H25.167V43.9643H31.3339V37.7974Z" fill="#D1D1D1"/>
<path d="M31.3339 31.6318H25.167V37.7988H31.3339V31.6318Z" fill="#D1D1D1"/>
<path d="M25.1669 37.7974H19V43.9643H25.1669V37.7974Z" fill="#D1D1D1"/>
<path d="M25.1669 43.9641H19V50.131H25.1669V43.9641Z" fill="#D1D1D1"/>
<path d="M25.1669 50.1309H19V56.2978H25.1669V50.1309Z" fill="#D1D1D1"/>
<path d="M49.833 19.2979H43.666V25.4648H49.833V19.2979Z" fill="#D1D1D1"/>
<path d="M56 19.2979H49.833V25.4648H56V19.2979Z" fill="#D1D1D1"/>
</svg>
